<svg version="1.1" xmlns="http://www.w3.org/2000/svg" xmlns:xlink="http://www.w3.org/1999/xlink" width="920.19970703125" height="704"><defs/><g><text fill="#eeeeee" stroke="none" font-family="Arial" font-size="24px" font-style="normal" font-weight="normal" text-decoration="none" x="0" y="0">UNREGISTERED</text><text fill="#eeeeee" stroke="none" font-family="Arial" font-size="24px" font-style="normal" font-weight="normal" text-decoration="none" x="0" y="30">UNREGISTERED</text><text fill="#eeeeee" stroke="none" font-family="Arial" font-size="24px" font-style="normal" font-weight="normal" text-decoration="none" x="0" y="60">UNREGISTERED</text><text fill="#eeeeee" stroke="none" font-family="Arial" font-size="24px" font-style="normal" font-weight="normal" text-decoration="none" x="0" y="90">UNREGISTERED</text><text fill="#eeeeee" stroke="none" font-family="Arial" font-size="24px" font-style="normal" font-weight="normal" text-decoration="none" x="0" y="120">UNREGISTERED</text><text fill="#eeeeee" stroke="none" font-family="Arial" font-size="24px" font-style="normal" font-weight="normal" text-decoration="none" x="0" y="150">UNREGISTERED</text><text fill="#eeeeee" stroke="none" font-family="Arial" font-size="24px" font-style="normal" font-weight="normal" text-decoration="none" x="0" y="180">UNREGISTERED</text><text fill="#eeeeee" stroke="none" font-family="Arial" font-size="24px" font-style="normal" font-weight="normal" text-decoration="none" x="0" y="210">UNREGISTERED</text><text fill="#eeeeee" stroke="none" font-family="Arial" font-size="24px" font-style="normal" font-weight="normal" text-decoration="none" x="0" y="240">UNREGISTERED</text><text fill="#eeeeee" stroke="none" font-family="Arial" font-size="24px" font-style="normal" font-weight="normal" text-decoration="none" x="0" y="270">UNREGISTERED</text><text fill="#eeeeee" stroke="none" font-family="Arial" font-size="24px" font-style="normal" font-weight="normal" text-decoration="none" x="0" y="300">UNREGISTERED</text><text fill="#eeeeee" stroke="none" font-family="Arial" font-size="24px" font-style="normal" font-weight="normal" text-decoration="none" x="0" y="330">UNREGISTERED</text><text fill="#eeeeee" stroke="none" font-family="Arial" font-size="24px" font-style="normal" font-weight="normal" text-decoration="none" x="0" y="360">UNREGISTERED</text><text fill="#eeeeee" stroke="none" font-family="Arial" font-size="24px" font-style="normal" font-weight="normal" text-decoration="none" x="0" y="390">UNREGISTERED</text><text fill="#eeeeee" stroke="none" font-family="Arial" font-size="24px" font-style="normal" font-weight="normal" text-decoration="none" x="0" y="420">UNREGISTERED</text><text fill="#eeeeee" stroke="none" font-family="Arial" font-size="24px" font-style="normal" font-weight="normal" text-decoration="none" x="0" y="450">UNREGISTERED</text><text fill="#eeeeee" stroke="none" font-family="Arial" font-size="24px" font-style="normal" font-weight="normal" text-decoration="none" x="0" y="480">UNREGISTERED</text><text fill="#eeeeee" stroke="none" font-family="Arial" font-size="24px" font-style="normal" font-weight="normal" text-decoration="none" x="0" y="510">UNREGISTERED</text><text fill="#eeeeee" stroke="none" font-family="Arial" font-size="24px" font-style="normal" font-weight="normal" text-decoration="none" x="0" y="540">UNREGISTERED</text><text fill="#eeeeee" stroke="none" font-family="Arial" font-size="24px" font-style="normal" font-weight="normal" text-decoration="none" x="0" y="570">UNREGISTERED</text><text fill="#eeeeee" stroke="none" font-family="Arial" font-size="24px" font-style="normal" font-weight="normal" text-decoration="none" x="0" y="600">UNREGISTERED</text><text fill="#eeeeee" stroke="none" font-family="Arial" font-size="24px" font-style="normal" font-weight="normal" text-decoration="none" x="0" y="630">UNREGISTERED</text><text fill="#eeeeee" stroke="none" font-family="Arial" font-size="24px" font-style="normal" font-weight="normal" text-decoration="none" x="0" y="660">UNREGISTERED</text><text fill="#eeeeee" stroke="none" font-family="Arial" font-size="24px" font-style="normal" font-weight="normal" text-decoration="none" x="0" y="690">UNREGISTERED</text><text fill="#eeeeee" stroke="none" font-family="Arial" font-size="24px" font-style="normal" font-weight="normal" text-decoration="none" x="200" y="0">UNREGISTERED</text><text fill="#eeeeee" stroke="none" font-family="Arial" font-size="24px" font-style="normal" font-weight="normal" text-decoration="none" x="200" y="30">UNREGISTERED</text><text fill="#eeeeee" stroke="none" font-family="Arial" font-size="24px" font-style="normal" font-weight="normal" text-decoration="none" x="200" y="60">UNREGISTERED</text><text fill="#eeeeee" stroke="none" font-family="Arial" font-size="24px" font-style="normal" font-weight="normal" text-decoration="none" x="200" y="90">UNREGISTERED</text><text fill="#eeeeee" stroke="none" font-family="Arial" font-size="24px" font-style="normal" font-weight="normal" text-decoration="none" x="200" y="120">UNREGISTERED</text><text fill="#eeeeee" stroke="none" font-family="Arial" font-size="24px" font-style="normal" font-weight="normal" text-decoration="none" x="200" y="150">UNREGISTERED</text><text fill="#eeeeee" stroke="none" font-family="Arial" font-size="24px" font-style="normal" font-weight="normal" text-decoration="none" x="200" y="180">UNREGISTERED</text><text fill="#eeeeee" stroke="none" font-family="Arial" font-size="24px" font-style="normal" font-weight="normal" text-decoration="none" x="200" y="210">UNREGISTERED</text><text fill="#eeeeee" stroke="none" font-family="Arial" font-size="24px" font-style="normal" font-weight="normal" text-decoration="none" x="200" y="240">UNREGISTERED</text><text fill="#eeeeee" stroke="none" font-family="Arial" font-size="24px" font-style="normal" font-weight="normal" text-decoration="none" x="200" y="270">UNREGISTERED</text><text fill="#eeeeee" stroke="none" font-family="Arial" font-size="24px" font-style="normal" font-weight="normal" text-decoration="none" x="200" y="300">UNREGISTERED</text><text fill="#eeeeee" stroke="none" font-family="Arial" font-size="24px" font-style="normal" font-weight="normal" text-decoration="none" x="200" y="330">UNREGISTERED</text><text fill="#eeeeee" stroke="none" font-family="Arial" font-size="24px" font-style="normal" font-weight="normal" text-decoration="none" x="200" y="360">UNREGISTERED</text><text fill="#eeeeee" stroke="none" font-family="Arial" font-size="24px" font-style="normal" font-weight="normal" text-decoration="none" x="200" y="390">UNREGISTERED</text><text fill="#eeeeee" stroke="none" font-family="Arial" font-size="24px" font-style="normal" font-weight="normal" text-decoration="none" x="200" y="420">UNREGISTERED</text><text fill="#eeeeee" stroke="none" font-family="Arial" font-size="24px" font-style="normal" font-weight="normal" text-decoration="none" x="200" y="450">UNREGISTERED</text><text fill="#eeeeee" stroke="none" font-family="Arial" font-size="24px" font-style="normal" font-weight="normal" text-decoration="none" x="200" y="480">UNREGISTERED</text><text fill="#eeeeee" stroke="none" font-family="Arial" font-size="24px" font-style="normal" font-weight="normal" text-decoration="none" x="200" y="510">UNREGISTERED</text><text fill="#eeeeee" stroke="none" font-family="Arial" font-size="24px" font-style="normal" font-weight="normal" text-decoration="none" x="200" y="540">UNREGISTERED</text><text fill="#eeeeee" stroke="none" font-family="Arial" font-size="24px" font-style="normal" font-weight="normal" text-decoration="none" x="200" y="570">UNREGISTERED</text><text fill="#eeeeee" stroke="none" font-family="Arial" font-size="24px" font-style="normal" font-weight="normal" text-decoration="none" x="200" y="600">UNREGISTERED</text><text fill="#eeeeee" stroke="none" font-family="Arial" font-size="24px" font-style="normal" font-weight="normal" text-decoration="none" x="200" y="630">UNREGISTERED</text><text fill="#eeeeee" stroke="none" font-family="Arial" font-size="24px" font-style="normal" font-weight="normal" text-decoration="none" x="200" y="660">UNREGISTERED</text><text fill="#eeeeee" stroke="none" font-family="Arial" font-size="24px" font-style="normal" font-weight="normal" text-decoration="none" x="200" y="690">UNREGISTERED</text><text fill="#eeeeee" stroke="none" font-family="Arial" font-size="24px" font-style="normal" font-weight="normal" text-decoration="none" x="400" y="0">UNREGISTERED</text><text fill="#eeeeee" stroke="none" font-family="Arial" font-size="24px" font-style="normal" font-weight="normal" text-decoration="none" x="400" y="30">UNREGISTERED</text><text fill="#eeeeee" stroke="none" font-family="Arial" font-size="24px" font-style="normal" font-weight="normal" text-decoration="none" x="400" y="60">UNREGISTERED</text><text fill="#eeeeee" stroke="none" font-family="Arial" font-size="24px" font-style="normal" font-weight="normal" text-decoration="none" x="400" y="90">UNREGISTERED</text><text fill="#eeeeee" stroke="none" font-family="Arial" font-size="24px" font-style="normal" font-weight="normal" text-decoration="none" x="400" y="120">UNREGISTERED</text><text fill="#eeeeee" stroke="none" font-family="Arial" font-size="24px" font-style="normal" font-weight="normal" text-decoration="none" x="400" y="150">UNREGISTERED</text><text fill="#eeeeee" stroke="none" font-family="Arial" font-size="24px" font-style="normal" font-weight="normal" text-decoration="none" x="400" y="180">UNREGISTERED</text><text fill="#eeeeee" stroke="none" font-family="Arial" font-size="24px" font-style="normal" font-weight="normal" text-decoration="none" x="400" y="210">UNREGISTERED</text><text fill="#eeeeee" stroke="none" font-family="Arial" font-size="24px" font-style="normal" font-weight="normal" text-decoration="none" x="400" y="240">UNREGISTERED</text><text fill="#eeeeee" stroke="none" font-family="Arial" font-size="24px" font-style="normal" font-weight="normal" text-decoration="none" x="400" y="270">UNREGISTERED</text><text fill="#eeeeee" stroke="none" font-family="Arial" font-size="24px" font-style="normal" font-weight="normal" text-decoration="none" x="400" y="300">UNREGISTERED</text><text fill="#eeeeee" stroke="none" font-family="Arial" font-size="24px" font-style="normal" font-weight="normal" text-decoration="none" x="400" y="330">UNREGISTERED</text><text fill="#eeeeee" stroke="none" font-family="Arial" font-size="24px" font-style="normal" font-weight="normal" text-decoration="none" x="400" y="360">UNREGISTERED</text><text fill="#eeeeee" stroke="none" font-family="Arial" font-size="24px" font-style="normal" font-weight="normal" text-decoration="none" x="400" y="390">UNREGISTERED</text><text fill="#eeeeee" stroke="none" font-family="Arial" font-size="24px" font-style="normal" font-weight="normal" text-decoration="none" x="400" y="420">UNREGISTERED</text><text fill="#eeeeee" stroke="none" font-family="Arial" font-size="24px" font-style="normal" font-weight="normal" text-decoration="none" x="400" y="450">UNREGISTERED</text><text fill="#eeeeee" stroke="none" font-family="Arial" font-size="24px" font-style="normal" font-weight="normal" text-decoration="none" x="400" y="480">UNREGISTERED</text><text fill="#eeeeee" stroke="none" font-family="Arial" font-size="24px" font-style="normal" font-weight="normal" text-decoration="none" x="400" y="510">UNREGISTERED</text><text fill="#eeeeee" stroke="none" font-family="Arial" font-size="24px" font-style="normal" font-weight="normal" text-decoration="none" x="400" y="540">UNREGISTERED</text><text fill="#eeeeee" stroke="none" font-family="Arial" font-size="24px" font-style="normal" font-weight="normal" text-decoration="none" x="400" y="570">UNREGISTERED</text><text fill="#eeeeee" stroke="none" font-family="Arial" font-size="24px" font-style="normal" font-weight="normal" text-decoration="none" x="400" y="600">UNREGISTERED</text><text fill="#eeeeee" stroke="none" font-family="Arial" font-size="24px" font-style="normal" font-weight="normal" text-decoration="none" x="400" y="630">UNREGISTERED</text><text fill="#eeeeee" stroke="none" font-family="Arial" font-size="24px" font-style="normal" font-weight="normal" text-decoration="none" x="400" y="660">UNREGISTERED</text><text fill="#eeeeee" stroke="none" font-family="Arial" font-size="24px" font-style="normal" font-weight="normal" text-decoration="none" x="400" y="690">UNREGISTERED</text><text fill="#eeeeee" stroke="none" font-family="Arial" font-size="24px" font-style="normal" font-weight="normal" text-decoration="none" x="600" y="0">UNREGISTERED</text><text fill="#eeeeee" stroke="none" font-family="Arial" font-size="24px" font-style="normal" font-weight="normal" text-decoration="none" x="600" y="30">UNREGISTERED</text><text fill="#eeeeee" stroke="none" font-family="Arial" font-size="24px" font-style="normal" font-weight="normal" text-decoration="none" x="600" y="60">UNREGISTERED</text><text fill="#eeeeee" stroke="none" font-family="Arial" font-size="24px" font-style="normal" font-weight="normal" text-decoration="none" x="600" y="90">UNREGISTERED</text><text fill="#eeeeee" stroke="none" font-family="Arial" font-size="24px" font-style="normal" font-weight="normal" text-decoration="none" x="600" y="120">UNREGISTERED</text><text fill="#eeeeee" stroke="none" font-family="Arial" font-size="24px" font-style="normal" font-weight="normal" text-decoration="none" x="600" y="150">UNREGISTERED</text><text fill="#eeeeee" stroke="none" font-family="Arial" font-size="24px" font-style="normal" font-weight="normal" text-decoration="none" x="600" y="180">UNREGISTERED</text><text fill="#eeeeee" stroke="none" font-family="Arial" font-size="24px" font-style="normal" font-weight="normal" text-decoration="none" x="600" y="210">UNREGISTERED</text><text fill="#eeeeee" stroke="none" font-family="Arial" font-size="24px" font-style="normal" font-weight="normal" text-decoration="none" x="600" y="240">UNREGISTERED</text><text fill="#eeeeee" stroke="none" font-family="Arial" font-size="24px" font-style="normal" font-weight="normal" text-decoration="none" x="600" y="270">UNREGISTERED</text><text fill="#eeeeee" stroke="none" font-family="Arial" font-size="24px" font-style="normal" font-weight="normal" text-decoration="none" x="600" y="300">UNREGISTERED</text><text fill="#eeeeee" stroke="none" font-family="Arial" font-size="24px" font-style="normal" font-weight="normal" text-decoration="none" x="600" y="330">UNREGISTERED</text><text fill="#eeeeee" stroke="none" font-family="Arial" font-size="24px" font-style="normal" font-weight="normal" text-decoration="none" x="600" y="360">UNREGISTERED</text><text fill="#eeeeee" stroke="none" font-family="Arial" font-size="24px" font-style="normal" font-weight="normal" text-decoration="none" x="600" y="390">UNREGISTERED</text><text fill="#eeeeee" stroke="none" font-family="Arial" font-size="24px" font-style="normal" font-weight="normal" text-decoration="none" x="600" y="420">UNREGISTERED</text><text fill="#eeeeee" stroke="none" font-family="Arial" font-size="24px" font-style="normal" font-weight="normal" text-decoration="none" x="600" y="450">UNREGISTERED</text><text fill="#eeeeee" stroke="none" font-family="Arial" font-size="24px" font-style="normal" font-weight="normal" text-decoration="none" x="600" y="480">UNREGISTERED</text><text fill="#eeeeee" stroke="none" font-family="Arial" font-size="24px" font-style="normal" font-weight="normal" text-decoration="none" x="600" y="510">UNREGISTERED</text><text fill="#eeeeee" stroke="none" font-family="Arial" font-size="24px" font-style="normal" font-weight="normal" text-decoration="none" x="600" y="540">UNREGISTERED</text><text fill="#eeeeee" stroke="none" font-family="Arial" font-size="24px" font-style="normal" font-weight="normal" text-decoration="none" x="600" y="570">UNREGISTERED</text><text fill="#eeeeee" stroke="none" font-family="Arial" font-size="24px" font-style="normal" font-weight="normal" text-decoration="none" x="600" y="600">UNREGISTERED</text><text fill="#eeeeee" stroke="none" font-family="Arial" font-size="24px" font-style="normal" font-weight="normal" text-decoration="none" x="600" y="630">UNREGISTERED</text><text fill="#eeeeee" stroke="none" font-family="Arial" font-size="24px" font-style="normal" font-weight="normal" text-decoration="none" x="600" y="660">UNREGISTERED</text><text fill="#eeeeee" stroke="none" font-family="Arial" font-size="24px" font-style="normal" font-weight="normal" text-decoration="none" x="600" y="690">UNREGISTERED</text><text fill="#eeeeee" stroke="none" font-family="Arial" font-size="24px" font-style="normal" font-weight="normal" text-decoration="none" x="800" y="0">UNREGISTERED</text><text fill="#eeeeee" stroke="none" font-family="Arial" font-size="24px" font-style="normal" font-weight="normal" text-decoration="none" x="800" y="30">UNREGISTERED</text><text fill="#eeeeee" stroke="none" font-family="Arial" font-size="24px" font-style="normal" font-weight="normal" text-decoration="none" x="800" y="60">UNREGISTERED</text><text fill="#eeeeee" stroke="none" font-family="Arial" font-size="24px" font-style="normal" font-weight="normal" text-decoration="none" x="800" y="90">UNREGISTERED</text><text fill="#eeeeee" stroke="none" font-family="Arial" font-size="24px" font-style="normal" font-weight="normal" text-decoration="none" x="800" y="120">UNREGISTERED</text><text fill="#eeeeee" stroke="none" font-family="Arial" font-size="24px" font-style="normal" font-weight="normal" text-decoration="none" x="800" y="150">UNREGISTERED</text><text fill="#eeeeee" stroke="none" font-family="Arial" font-size="24px" font-style="normal" font-weight="normal" text-decoration="none" x="800" y="180">UNREGISTERED</text><text fill="#eeeeee" stroke="none" font-family="Arial" font-size="24px" font-style="normal" font-weight="normal" text-decoration="none" x="800" y="210">UNREGISTERED</text><text fill="#eeeeee" stroke="none" font-family="Arial" font-size="24px" font-style="normal" font-weight="normal" text-decoration="none" x="800" y="240">UNREGISTERED</text><text fill="#eeeeee" stroke="none" font-family="Arial" font-size="24px" font-style="normal" font-weight="normal" text-decoration="none" x="800" y="270">UNREGISTERED</text><text fill="#eeeeee" stroke="none" font-family="Arial" font-size="24px" font-style="normal" font-weight="normal" text-decoration="none" x="800" y="300">UNREGISTERED</text><text fill="#eeeeee" stroke="none" font-family="Arial" font-size="24px" font-style="normal" font-weight="normal" text-decoration="none" x="800" y="330">UNREGISTERED</text><text fill="#eeeeee" stroke="none" font-family="Arial" font-size="24px" font-style="normal" font-weight="normal" text-decoration="none" x="800" y="360">UNREGISTERED</text><text fill="#eeeeee" stroke="none" font-family="Arial" font-size="24px" font-style="normal" font-weight="normal" text-decoration="none" x="800" y="390">UNREGISTERED</text><text fill="#eeeeee" stroke="none" font-family="Arial" font-size="24px" font-style="normal" font-weight="normal" text-decoration="none" x="800" y="420">UNREGISTERED</text><text fill="#eeeeee" stroke="none" font-family="Arial" font-size="24px" font-style="normal" font-weight="normal" text-decoration="none" x="800" y="450">UNREGISTERED</text><text fill="#eeeeee" stroke="none" font-family="Arial" font-size="24px" font-style="normal" font-weight="normal" text-decoration="none" x="800" y="480">UNREGISTERED</text><text fill="#eeeeee" stroke="none" font-family="Arial" font-size="24px" font-style="normal" font-weight="normal" text-decoration="none" x="800" y="510">UNREGISTERED</text><text fill="#eeeeee" stroke="none" font-family="Arial" font-size="24px" font-style="normal" font-weight="normal" text-decoration="none" x="800" y="540">UNREGISTERED</text><text fill="#eeeeee" stroke="none" font-family="Arial" font-size="24px" font-style="normal" font-weight="normal" text-decoration="none" x="800" y="570">UNREGISTERED</text><text fill="#eeeeee" stroke="none" font-family="Arial" font-size="24px" font-style="normal" font-weight="normal" text-decoration="none" x="800" y="600">UNREGISTERED</text><text fill="#eeeeee" stroke="none" font-family="Arial" font-size="24px" font-style="normal" font-weight="normal" text-decoration="none" x="800" y="630">UNREGISTERED</text><text fill="#eeeeee" stroke="none" font-family="Arial" font-size="24px" font-style="normal" font-weight="normal" text-decoration="none" x="800" y="660">UNREGISTERED</text><text fill="#eeeeee" stroke="none" font-family="Arial" font-size="24px" font-style="normal" font-weight="normal" text-decoration="none" x="800" y="690">UNREGISTERED</text><g transform="translate(-110,-14) scale(1,1)"><rect fill="#C0C0C0" stroke="none" x="127" y="31" width="160" height="120" opacity="0.2"/></g><g transform="translate(-110,-14) scale(1,1)"><rect fill="#ffffff" stroke="none" x="120" y="24" width="160" height="120"/></g><g transform="translate(-110,-14) scale(1,1)"><path fill="none" stroke="#000000" d="M 120 24 L 280 24 L 280 144 L 120 144 L 120 24 Z Z" stroke-miterlimit="10"/></g><g transform="translate(-110,-14) scale(1,1)"><path fill="none" stroke="#000000" d="M 120 49 L 280 49" stroke-miterlimit="10"/></g><g transform="translate(-110,-14) scale(1,1)"><path fill="none" stroke="#000000" d="M 120 87 L 280 87" stroke-miterlimit="10"/></g><g transform="translate(-110,-14) scale(1,1)"><g><path fill="none" stroke="none"/><text fill="#000000" stroke="none" font-family="Arial" font-size="13px" font-style="normal" font-weight="bold" text-decoration="none" x="174.345947265625" y="43.5">Manager</text></g></g><g transform="translate(-110,-14) scale(1,1)"><g><path fill="none" stroke="none"/><text fill="#000000" stroke="none" font-family="Arial" font-size="13px" font-style="normal" font-weight="normal" text-decoration="none" x="125" y="66.5">+Arbre: Arbre</text></g></g><g transform="translate(-110,-14) scale(1,1)"><g><path fill="none" stroke="none"/><text fill="#000000" stroke="none" font-family="Arial" font-size="13px" font-style="normal" font-weight="normal" text-decoration="none" x="125" y="81.5">-manager: Manager</text><path fill="none" stroke="#000000" d="M 125 81.5 L 239.1689453125 81.5" stroke-miterlimit="10"/></g></g><g transform="translate(-110,-14) scale(1,1)"><g><path fill="none" stroke="none"/><text fill="#000000" stroke="none" font-family="Arial" font-size="13px" font-style="normal" font-weight="normal" text-decoration="none" x="125" y="104.5">-Manager()</text></g></g><g transform="translate(-110,-14) scale(1,1)"><g><path fill="none" stroke="none"/><text fill="#000000" stroke="none" font-family="Arial" font-size="13px" font-style="normal" font-weight="normal" text-decoration="none" x="125" y="119.5">+GetInstance(): Manager</text><path fill="none" stroke="#000000" d="M 125 119.5 L 269.87890625 119.5" stroke-miterlimit="10"/></g></g><g transform="translate(-110,-14) scale(1,1)"><rect fill="#C0C0C0" stroke="none" x="135" y="247" width="227.61328125" height="136" opacity="0.2"/></g><g transform="translate(-110,-14) scale(1,1)"><rect fill="#ffffff" stroke="none" x="128" y="240" width="227.61328125" height="136"/></g><g transform="translate(-110,-14) scale(1,1)"><path fill="none" stroke="#000000" d="M 128 240 L 355.61328125 240 L 355.61328125 376 L 128 376 L 128 240 Z Z" stroke-miterlimit="10"/></g><g transform="translate(-110,-14) scale(1,1)"><path fill="none" stroke="#000000" d="M 128 265 L 355.61328125 265" stroke-miterlimit="10"/></g><g transform="translate(-110,-14) scale(1,1)"><path fill="none" stroke="#000000" d="M 128 303 L 355.61328125 303" stroke-miterlimit="10"/></g><g transform="translate(-110,-14) scale(1,1)"><g><path fill="none" stroke="none"/><text fill="#000000" stroke="none" font-family="Arial" font-size="13px" font-style="normal" font-weight="bold" text-decoration="none" x="225.912109375" y="259.5">Arbre</text></g></g><g transform="translate(-110,-14) scale(1,1)"><g><path fill="none" stroke="none"/><text fill="#000000" stroke="none" font-family="Arial" font-size="13px" font-style="normal" font-weight="normal" text-decoration="none" x="133" y="282.5">+ListPersonne: Collection&lt;Personne&gt;</text></g></g><g transform="translate(-110,-14) scale(1,1)"><g><path fill="none" stroke="none"/><text fill="#000000" stroke="none" font-family="Arial" font-size="13px" font-style="normal" font-weight="normal" text-decoration="none" x="133" y="297.5">+id: int?</text></g></g><g transform="translate(-110,-14) scale(1,1)"><g><path fill="none" stroke="none"/><text fill="#000000" stroke="none" font-family="Arial" font-size="13px" font-style="normal" font-weight="normal" text-decoration="none" x="133" y="320.5">+Ajouter(Personne, numero)</text></g></g><g transform="translate(-110,-14) scale(1,1)"><g><path fill="none" stroke="none"/><text fill="#000000" stroke="none" font-family="Arial" font-size="13px" font-style="normal" font-weight="normal" text-decoration="none" x="133" y="335.5">+Supprimer(numero)</text></g></g><g transform="translate(-110,-14) scale(1,1)"><rect fill="#C0C0C0" stroke="none" x="447" y="295" width="234.8115234375" height="205" opacity="0.2"/></g><g transform="translate(-110,-14) scale(1,1)"><rect fill="#ffffff" stroke="none" x="440" y="288" width="234.8115234375" height="205"/></g><g transform="translate(-110,-14) scale(1,1)"><path fill="none" stroke="#000000" d="M 440 288 L 674.8115234375 288 L 674.8115234375 493 L 440 493 L 440 288 Z Z" stroke-miterlimit="10"/></g><g transform="translate(-110,-14) scale(1,1)"><path fill="none" stroke="#000000" d="M 440 326 L 674.8115234375 326" stroke-miterlimit="10"/></g><g transform="translate(-110,-14) scale(1,1)"><path fill="none" stroke="#000000" d="M 440 484 L 674.8115234375 484" stroke-miterlimit="10"/></g><g transform="translate(-110,-14) scale(1,1)"><g><path fill="none" stroke="none"/><text fill="#000000" stroke="none" font-family="Arial" font-size="13px" font-style="normal" font-weight="normal" text-decoration="none" x="527.054443359375" y="305.5">«abstract»</text></g></g><g transform="translate(-110,-14) scale(1,1)"><g><path fill="none" stroke="none"/><text fill="#000000" stroke="none" font-family="Arial" font-size="13px" font-style="normal" font-weight="bold" text-decoration="none" x="529.580810546875" y="320.5">Personne</text></g></g><g transform="translate(-110,-14) scale(1,1)"><g><path fill="none" stroke="none"/><text fill="#000000" stroke="none" font-family="Arial" font-size="13px" font-style="normal" font-weight="normal" text-decoration="none" x="445" y="343.5">+Id: int?</text></g></g><g transform="translate(-110,-14) scale(1,1)"><g><path fill="none" stroke="none"/><text fill="#000000" stroke="none" font-family="Arial" font-size="13px" font-style="normal" font-weight="normal" text-decoration="none" x="445" y="358.5">+Numero: uint</text></g></g><g transform="translate(-110,-14) scale(1,1)"><g><path fill="none" stroke="none"/><text fill="#000000" stroke="none" font-family="Arial" font-size="13px" font-style="normal" font-weight="normal" text-decoration="none" x="445" y="373.5">+nom</text></g></g><g transform="translate(-110,-14) scale(1,1)"><g><path fill="none" stroke="none"/><text fill="#000000" stroke="none" font-family="Arial" font-size="13px" font-style="normal" font-weight="normal" text-decoration="none" x="445" y="388.5">+prenoms: Collection&lt;String&gt;</text></g></g><g transform="translate(-110,-14) scale(1,1)"><g><path fill="none" stroke="none"/><text fill="#000000" stroke="none" font-family="Arial" font-size="13px" font-style="normal" font-weight="normal" text-decoration="none" x="445" y="403.5">+DateNaissance</text></g></g><g transform="translate(-110,-14) scale(1,1)"><g><path fill="none" stroke="none"/><text fill="#000000" stroke="none" font-family="Arial" font-size="13px" font-style="normal" font-weight="normal" text-decoration="none" x="445" y="418.5">+DateDeces</text></g></g><g transform="translate(-110,-14) scale(1,1)"><g><path fill="none" stroke="none"/><text fill="#000000" stroke="none" font-family="Arial" font-size="13px" font-style="normal" font-weight="normal" text-decoration="none" x="445" y="433.5">+LieuNaissance</text></g></g><g transform="translate(-110,-14) scale(1,1)"><g><path fill="none" stroke="none"/><text fill="#000000" stroke="none" font-family="Arial" font-size="13px" font-style="normal" font-weight="normal" text-decoration="none" x="445" y="448.5">+Nationalite</text></g></g><g transform="translate(-110,-14) scale(1,1)"><g><path fill="none" stroke="none"/><text fill="#000000" stroke="none" font-family="Arial" font-size="13px" font-style="normal" font-weight="normal" text-decoration="none" x="445" y="463.5">+inconnu: boolean</text></g></g><g transform="translate(-110,-14) scale(1,1)"><g><path fill="none" stroke="none"/><text fill="#000000" stroke="none" font-family="Arial" font-size="13px" font-style="normal" font-weight="normal" text-decoration="none" x="445" y="478.5">+ListDocument: Collection&lt;Fichier&gt;</text></g></g><g transform="translate(-110,-14) scale(1,1)"><path fill="none" stroke="#000000" d="M 216 144 L 216 240" stroke-miterlimit="10"/></g><g transform="translate(-110,-14) scale(1,1)"><path fill="none" stroke="#000000" d="M 211.790482243984 229.83732514237585 L 216 240 L 220.209517756016 229.83732514237585" stroke-miterlimit="10"/></g><g transform="translate(-110,-14) scale(1,1)"><rect fill="#C0C0C0" stroke="none" x="783" y="255" width="244.19970703125" height="168" opacity="0.2"/></g><g transform="translate(-110,-14) scale(1,1)"><rect fill="#ffffff" stroke="none" x="776" y="248" width="244.19970703125" height="168"/></g><g transform="translate(-110,-14) scale(1,1)"><path fill="none" stroke="#000000" d="M 776 248 L 1020.19970703125 248 L 1020.19970703125 416 L 776 416 L 776 248 Z Z" stroke-miterlimit="10"/></g><g transform="translate(-110,-14) scale(1,1)"><path fill="none" stroke="#000000" d="M 776 286 L 1020.19970703125 286" stroke-miterlimit="10"/></g><g transform="translate(-110,-14) scale(1,1)"><path fill="none" stroke="#000000" d="M 776 296 L 1020.19970703125 296" stroke-miterlimit="10"/></g><g transform="translate(-110,-14) scale(1,1)"><g><path fill="none" stroke="none"/><text fill="#000000" stroke="none" font-family="Arial" font-size="13px" font-style="normal" font-weight="normal" text-decoration="none" x="865.57763671875" y="265.5">«Interface»</text></g></g><g transform="translate(-110,-14) scale(1,1)"><g><path fill="none" stroke="none"/><text fill="#000000" stroke="none" font-family="Arial" font-size="13px" font-style="normal" font-weight="bold" text-decoration="none" x="876.054443359375" y="280.5">ILoader</text></g></g><g transform="translate(-110,-14) scale(1,1)"><g><path fill="none" stroke="none"/><text fill="#000000" stroke="none" font-family="Arial" font-size="13px" font-style="normal" font-weight="normal" text-decoration="none" x="781" y="313.5">+charger(int idArbre): Arbre</text></g></g><g transform="translate(-110,-14) scale(1,1)"><g><path fill="none" stroke="none"/><text fill="#000000" stroke="none" font-family="Arial" font-size="13px" font-style="normal" font-weight="normal" text-decoration="none" x="781" y="328.5">+Sauvegarder(Arbre)</text></g></g><g transform="translate(-110,-14) scale(1,1)"><g><path fill="none" stroke="none"/><text fill="#000000" stroke="none" font-family="Arial" font-size="13px" font-style="normal" font-weight="normal" text-decoration="none" x="781" y="343.5">+ChargerPersonne(int numero, int arbre)</text></g></g><g transform="translate(-110,-14) scale(1,1)"><path fill="none" stroke="#000000" d="M 280 108 L 848 108 L 848 248" stroke-miterlimit="10"/></g><g transform="translate(-110,-14) scale(1,1)"><path fill="none" stroke="#000000" d="M 843.790482243984 237.83732514237585 L 848 248 L 852.209517756016 237.83732514237585" stroke-miterlimit="10"/></g><g transform="translate(-110,-14) scale(1,1)"><rect fill="#C0C0C0" stroke="none" x="823" y="527" width="127" height="79" opacity="0.2"/></g><g transform="translate(-110,-14) scale(1,1)"><rect fill="#ffffff" stroke="none" x="816" y="520" width="127" height="79"/></g><g transform="translate(-110,-14) scale(1,1)"><path fill="none" stroke="#000000" d="M 816 520 L 943 520 L 943 599 L 816 599 L 816 520 Z Z" stroke-miterlimit="10"/></g><g transform="translate(-110,-14) scale(1,1)"><path fill="none" stroke="#000000" d="M 816 545 L 943 545" stroke-miterlimit="10"/></g><g transform="translate(-110,-14) scale(1,1)"><path fill="none" stroke="#000000" d="M 816 555 L 943 555" stroke-miterlimit="10"/></g><g transform="translate(-110,-14) scale(1,1)"><g><path fill="none" stroke="none"/><text fill="#000000" stroke="none" font-family="Arial" font-size="13px" font-style="normal" font-weight="bold" text-decoration="none" x="845.536865234375" y="539.5">BDDLoader</text></g></g><g transform="translate(-110,-14) scale(1,1)"><path fill="none" stroke="#000000" d="M 847 520 L 847 416" stroke-miterlimit="10" stroke-dasharray="3"/></g><g transform="translate(-110,-14) scale(1,1)"><path fill="none" stroke="#000000" d="M 851.209517756016 426.16267485762415 L 847 416 L 842.790482243984 426.16267485762415" stroke-miterlimit="10"/></g><g transform="translate(-110,-14) scale(1,1)"><rect fill="#C0C0C0" stroke="none" x="343" y="607" width="126.51904296875" height="108" opacity="0.2"/></g><g transform="translate(-110,-14) scale(1,1)"><rect fill="#ffffff" stroke="none" x="336" y="600" width="126.51904296875" height="108"/></g><g transform="translate(-110,-14) scale(1,1)"><path fill="none" stroke="#000000" d="M 336 600 L 462.51904296875 600 L 462.51904296875 708 L 336 708 L 336 600 Z Z" stroke-miterlimit="10"/></g><g transform="translate(-110,-14) scale(1,1)"><path fill="none" stroke="#000000" d="M 336 625 L 462.51904296875 625" stroke-miterlimit="10"/></g><g transform="translate(-110,-14) scale(1,1)"><path fill="none" stroke="#000000" d="M 336 648 L 462.51904296875 648" stroke-miterlimit="10"/></g><g transform="translate(-110,-14) scale(1,1)"><g><path fill="none" stroke="none"/><text fill="#000000" stroke="none" font-family="Arial" font-size="13px" font-style="normal" font-weight="bold" text-decoration="none" x="377.22998046875" y="619.5">Femme</text></g></g><g transform="translate(-110,-14) scale(1,1)"><g><path fill="none" stroke="none"/><text fill="#000000" stroke="none" font-family="Arial" font-size="13px" font-style="normal" font-weight="normal" text-decoration="none" x="341" y="642.5">+NomJeunefille</text></g></g><g transform="translate(-110,-14) scale(1,1)"><g><path fill="none" stroke="none"/><text fill="#000000" stroke="none" font-family="Arial" font-size="13px" font-style="normal" font-weight="normal" text-decoration="none" x="341" y="665.5">+Femme()</text></g></g><g transform="translate(-110,-14) scale(1,1)"><rect fill="#C0C0C0" stroke="none" x="567" y="607" width="120" height="104" opacity="0.2"/></g><g transform="translate(-110,-14) scale(1,1)"><rect fill="#ffffff" stroke="none" x="560" y="600" width="120" height="104"/></g><g transform="translate(-110,-14) scale(1,1)"><path fill="none" stroke="#000000" d="M 560 600 L 680 600 L 680 704 L 560 704 L 560 600 Z Z" stroke-miterlimit="10"/></g><g transform="translate(-110,-14) scale(1,1)"><path fill="none" stroke="#000000" d="M 560 625 L 680 625" stroke-miterlimit="10"/></g><g transform="translate(-110,-14) scale(1,1)"><path fill="none" stroke="#000000" d="M 560 635 L 680 635" stroke-miterlimit="10"/></g><g transform="translate(-110,-14) scale(1,1)"><g><path fill="none" stroke="none"/><text fill="#000000" stroke="none" font-family="Arial" font-size="13px" font-style="normal" font-weight="bold" text-decoration="none" x="597.246826171875" y="619.5">Homme</text></g></g><g transform="translate(-110,-14) scale(1,1)"><g><path fill="none" stroke="none"/><text fill="#000000" stroke="none" font-family="Arial" font-size="13px" font-style="normal" font-weight="normal" text-decoration="none" x="565" y="652.5">+Homme()</text></g></g><g transform="translate(-110,-14) scale(1,1)"><path fill="none" stroke="#000000" d="M 424 600 L 424 536 L 520 536 L 520 493" stroke-miterlimit="10"/></g><g transform="translate(-110,-14) scale(1,1)"><path fill="#FFFFFF" stroke="none" d="M 528.419035512032 513.3253497152483 L 520 493 L 511.580964487968 513.3253497152483"/></g><g transform="translate(-110,-14) scale(1,1)"><path fill="none" stroke="#000000" d="M 528.419035512032 513.3253497152483 L 520 493 L 511.580964487968 513.3253497152483 L 528.419035512032 513.3253497152483" stroke-miterlimit="10"/></g><g transform="translate(-110,-14) scale(1,1)"><path fill="none" stroke="#000000" d="M 624 600 L 624 493" stroke-miterlimit="10"/></g><g transform="translate(-110,-14) scale(1,1)"><path fill="#FFFFFF" stroke="none" d="M 632.419035512032 513.3253497152483 L 624 493 L 615.580964487968 513.3253497152483"/></g><g transform="translate(-110,-14) scale(1,1)"><path fill="none" stroke="#000000" d="M 632.419035512032 513.3253497152483 L 624 493 L 615.580964487968 513.3253497152483 L 632.419035512032 513.3253497152483" stroke-miterlimit="10"/></g><g transform="translate(-110,-14) scale(1,1)"><rect fill="#C0C0C0" stroke="none" x="559" y="159" width="120" height="102" opacity="0.2"/></g><g transform="translate(-110,-14) scale(1,1)"><rect fill="#ffffff" stroke="none" x="552" y="152" width="120" height="102"/></g><g transform="translate(-110,-14) scale(1,1)"><path fill="none" stroke="#000000" d="M 552 152 L 672 152 L 672 254 L 552 254 L 552 152 Z Z" stroke-miterlimit="10"/></g><g transform="translate(-110,-14) scale(1,1)"><path fill="none" stroke="#000000" d="M 552 177 L 672 177" stroke-miterlimit="10"/></g><g transform="translate(-110,-14) scale(1,1)"><path fill="none" stroke="#000000" d="M 552 245 L 672 245" stroke-miterlimit="10"/></g><g transform="translate(-110,-14) scale(1,1)"><g><path fill="none" stroke="none"/><text fill="#000000" stroke="none" font-family="Arial" font-size="13px" font-style="normal" font-weight="bold" text-decoration="none" x="599.834716796875" y="171.5">Ville</text></g></g><g transform="translate(-110,-14) scale(1,1)"><g><path fill="none" stroke="none"/><text fill="#000000" stroke="none" font-family="Arial" font-size="13px" font-style="normal" font-weight="normal" text-decoration="none" x="557" y="194.5">+id: int?</text></g></g><g transform="translate(-110,-14) scale(1,1)"><g><path fill="none" stroke="none"/><text fill="#000000" stroke="none" font-family="Arial" font-size="13px" font-style="normal" font-weight="normal" text-decoration="none" x="557" y="209.5">+nom</text></g></g><g transform="translate(-110,-14) scale(1,1)"><g><path fill="none" stroke="none"/><text fill="#000000" stroke="none" font-family="Arial" font-size="13px" font-style="normal" font-weight="normal" text-decoration="none" x="557" y="224.5">+Longitude</text></g></g><g transform="translate(-110,-14) scale(1,1)"><g><path fill="none" stroke="none"/><text fill="#000000" stroke="none" font-family="Arial" font-size="13px" font-style="normal" font-weight="normal" text-decoration="none" x="557" y="239.5">+Latitude</text></g></g><g transform="translate(-110,-14) scale(1,1)"><path fill="none" stroke="#000000" d="M 587 287 L 597 255" stroke-miterlimit="10"/></g><g transform="translate(-110,-14) scale(1,1)"><path fill="none" stroke="#000000" d="M 597.9866286418995 265.95566355466354 L 597 255 L 589.9508278112991 263.4444757951009" stroke-miterlimit="10"/></g><g transform="translate(-110,-14) scale(1,1)"><rect fill="#C0C0C0" stroke="none" x="151" y="495" width="96.55908203125" height="72" opacity="0.2"/></g><g transform="translate(-110,-14) scale(1,1)"><rect fill="#ffffff" stroke="none" x="144" y="488" width="96.55908203125" height="72"/></g><g transform="translate(-110,-14) scale(1,1)"><path fill="none" stroke="#000000" d="M 144 488 L 240.55908203125 488 L 240.55908203125 560 L 144 560 L 144 488 Z Z" stroke-miterlimit="10"/></g><g transform="translate(-110,-14) scale(1,1)"><path fill="none" stroke="#000000" d="M 144 513 L 240.55908203125 513" stroke-miterlimit="10"/></g><g transform="translate(-110,-14) scale(1,1)"><path fill="none" stroke="#000000" d="M 144 536 L 240.55908203125 536" stroke-miterlimit="10"/></g><g transform="translate(-110,-14) scale(1,1)"><g><path fill="none" stroke="none"/><text fill="#000000" stroke="none" font-family="Arial" font-size="13px" font-style="normal" font-weight="bold" text-decoration="none" x="172.7763671875" y="507.5">Fichier</text></g></g><g transform="translate(-110,-14) scale(1,1)"><g><path fill="none" stroke="none"/><text fill="#000000" stroke="none" font-family="Arial" font-size="13px" font-style="normal" font-weight="normal" text-decoration="none" x="149" y="530.5">+id: int?</text></g></g><g transform="translate(-110,-14) scale(1,1)"><rect fill="#C0C0C0" stroke="none" x="151" y="615" width="96" height="96" opacity="0.2"/></g><g transform="translate(-110,-14) scale(1,1)"><rect fill="#ffffff" stroke="none" x="144" y="608" width="96" height="96"/></g><g transform="translate(-110,-14) scale(1,1)"><path fill="none" stroke="#000000" d="M 144 608 L 240 608 L 240 704 L 144 704 L 144 608 Z Z" stroke-miterlimit="10"/></g><g transform="translate(-110,-14) scale(1,1)"><path fill="none" stroke="#000000" d="M 144 633 L 240 633" stroke-miterlimit="10"/></g><g transform="translate(-110,-14) scale(1,1)"><path fill="none" stroke="#000000" d="M 144 643 L 240 643" stroke-miterlimit="10"/></g><g transform="translate(-110,-14) scale(1,1)"><g><path fill="none" stroke="none"/><text fill="#000000" stroke="none" font-family="Arial" font-size="13px" font-style="normal" font-weight="bold" text-decoration="none" x="173.9345703125" y="627.5">Image</text></g></g><g transform="translate(-110,-14) scale(1,1)"><path fill="none" stroke="#000000" d="M 192 607 L 192 561" stroke-miterlimit="10"/></g><g transform="translate(-110,-14) scale(1,1)"><path fill="#FFFFFF" stroke="none" d="M 200.41903551203197 581.3253497152483 L 192 561 L 183.58096448796803 581.3253497152483"/></g><g transform="translate(-110,-14) scale(1,1)"><path fill="none" stroke="#000000" d="M 200.41903551203197 581.3253497152483 L 192 561 L 183.58096448796803 581.3253497152483 L 200.41903551203197 581.3253497152483" stroke-miterlimit="10"/></g><g transform="translate(-110,-14) scale(1,1)"><path fill="none" stroke="#000000" d="M 439 359 L 357 338" stroke-miterlimit="10"/></g><g transform="translate(-110,-14) scale(1,1)"><path fill="#FFFFFF" stroke="none" d="M 367.88930007078494 336.4433548996631 L 357 338 L 365.80061222877623 344.59918361607816 L 378.31220749748627 343.45800435911235"/></g><g transform="translate(-110,-14) scale(1,1)"><path fill="none" stroke="#000000" d="M 367.88930007078494 336.4433548996631 L 357 338 L 365.80061222877623 344.59918361607816 L 378.31220749748627 343.45800435911235 L 367.88930007078494 336.4433548996631" stroke-miterlimit="10"/></g><g transform="translate(-110,-14) scale(1,1)"><path fill="none" stroke="#000000" d="M 242 506 L 439 433" stroke-miterlimit="10"/></g><g transform="translate(-110,-14) scale(1,1)"><path fill="#FFFFFF" stroke="none" d="M 430.9332263953617 440.478446604176 L 439 433 L 428.00786937530927 432.583989988418 L 418.3707907160546 440.6443262828833"/></g><g transform="translate(-110,-14) scale(1,1)"><path fill="none" stroke="#000000" d="M 430.9332263953617 440.478446604176 L 439 433 L 428.00786937530927 432.583989988418 L 418.3707907160546 440.6443262828833 L 430.9332263953617 440.478446604176" stroke-miterlimit="10"/></g></g></svg>