<svg version="1.1" xmlns="http://www.w3.org/2000/svg" xmlns:xlink="http://www.w3.org/1999/xlink" width="958.17724609375" height="443"><defs/><g><text fill="#eeeeee" stroke="none" font-family="Arial" font-size="24px" font-style="normal" font-weight="normal" text-decoration="none" x="0" y="0">UNREGISTERED</text><text fill="#eeeeee" stroke="none" font-family="Arial" font-size="24px" font-style="normal" font-weight="normal" text-decoration="none" x="0" y="30">UNREGISTERED</text><text fill="#eeeeee" stroke="none" font-family="Arial" font-size="24px" font-style="normal" font-weight="normal" text-decoration="none" x="0" y="60">UNREGISTERED</text><text fill="#eeeeee" stroke="none" font-family="Arial" font-size="24px" font-style="normal" font-weight="normal" text-decoration="none" x="0" y="90">UNREGISTERED</text><text fill="#eeeeee" stroke="none" font-family="Arial" font-size="24px" font-style="normal" font-weight="normal" text-decoration="none" x="0" y="120">UNREGISTERED</text><text fill="#eeeeee" stroke="none" font-family="Arial" font-size="24px" font-style="normal" font-weight="normal" text-decoration="none" x="0" y="150">UNREGISTERED</text><text fill="#eeeeee" stroke="none" font-family="Arial" font-size="24px" font-style="normal" font-weight="normal" text-decoration="none" x="0" y="180">UNREGISTERED</text><text fill="#eeeeee" stroke="none" font-family="Arial" font-size="24px" font-style="normal" font-weight="normal" text-decoration="none" x="0" y="210">UNREGISTERED</text><text fill="#eeeeee" stroke="none" font-family="Arial" font-size="24px" font-style="normal" font-weight="normal" text-decoration="none" x="0" y="240">UNREGISTERED</text><text fill="#eeeeee" stroke="none" font-family="Arial" font-size="24px" font-style="normal" font-weight="normal" text-decoration="none" x="0" y="270">UNREGISTERED</text><text fill="#eeeeee" stroke="none" font-family="Arial" font-size="24px" font-style="normal" font-weight="normal" text-decoration="none" x="0" y="300">UNREGISTERED</text><text fill="#eeeeee" stroke="none" font-family="Arial" font-size="24px" font-style="normal" font-weight="normal" text-decoration="none" x="0" y="330">UNREGISTERED</text><text fill="#eeeeee" stroke="none" font-family="Arial" font-size="24px" font-style="normal" font-weight="normal" text-decoration="none" x="0" y="360">UNREGISTERED</text><text fill="#eeeeee" stroke="none" font-family="Arial" font-size="24px" font-style="normal" font-weight="normal" text-decoration="none" x="0" y="390">UNREGISTERED</text><text fill="#eeeeee" stroke="none" font-family="Arial" font-size="24px" font-style="normal" font-weight="normal" text-decoration="none" x="0" y="420">UNREGISTERED</text><text fill="#eeeeee" stroke="none" font-family="Arial" font-size="24px" font-style="normal" font-weight="normal" text-decoration="none" x="200" y="0">UNREGISTERED</text><text fill="#eeeeee" stroke="none" font-family="Arial" font-size="24px" font-style="normal" font-weight="normal" text-decoration="none" x="200" y="30">UNREGISTERED</text><text fill="#eeeeee" stroke="none" font-family="Arial" font-size="24px" font-style="normal" font-weight="normal" text-decoration="none" x="200" y="60">UNREGISTERED</text><text fill="#eeeeee" stroke="none" font-family="Arial" font-size="24px" font-style="normal" font-weight="normal" text-decoration="none" x="200" y="90">UNREGISTERED</text><text fill="#eeeeee" stroke="none" font-family="Arial" font-size="24px" font-style="normal" font-weight="normal" text-decoration="none" x="200" y="120">UNREGISTERED</text><text fill="#eeeeee" stroke="none" font-family="Arial" font-size="24px" font-style="normal" font-weight="normal" text-decoration="none" x="200" y="150">UNREGISTERED</text><text fill="#eeeeee" stroke="none" font-family="Arial" font-size="24px" font-style="normal" font-weight="normal" text-decoration="none" x="200" y="180">UNREGISTERED</text><text fill="#eeeeee" stroke="none" font-family="Arial" font-size="24px" font-style="normal" font-weight="normal" text-decoration="none" x="200" y="210">UNREGISTERED</text><text fill="#eeeeee" stroke="none" font-family="Arial" font-size="24px" font-style="normal" font-weight="normal" text-decoration="none" x="200" y="240">UNREGISTERED</text><text fill="#eeeeee" stroke="none" font-family="Arial" font-size="24px" font-style="normal" font-weight="normal" text-decoration="none" x="200" y="270">UNREGISTERED</text><text fill="#eeeeee" stroke="none" font-family="Arial" font-size="24px" font-style="normal" font-weight="normal" text-decoration="none" x="200" y="300">UNREGISTERED</text><text fill="#eeeeee" stroke="none" font-family="Arial" font-size="24px" font-style="normal" font-weight="normal" text-decoration="none" x="200" y="330">UNREGISTERED</text><text fill="#eeeeee" stroke="none" font-family="Arial" font-size="24px" font-style="normal" font-weight="normal" text-decoration="none" x="200" y="360">UNREGISTERED</text><text fill="#eeeeee" stroke="none" font-family="Arial" font-size="24px" font-style="normal" font-weight="normal" text-decoration="none" x="200" y="390">UNREGISTERED</text><text fill="#eeeeee" stroke="none" font-family="Arial" font-size="24px" font-style="normal" font-weight="normal" text-decoration="none" x="200" y="420">UNREGISTERED</text><text fill="#eeeeee" stroke="none" font-family="Arial" font-size="24px" font-style="normal" font-weight="normal" text-decoration="none" x="400" y="0">UNREGISTERED</text><text fill="#eeeeee" stroke="none" font-family="Arial" font-size="24px" font-style="normal" font-weight="normal" text-decoration="none" x="400" y="30">UNREGISTERED</text><text fill="#eeeeee" stroke="none" font-family="Arial" font-size="24px" font-style="normal" font-weight="normal" text-decoration="none" x="400" y="60">UNREGISTERED</text><text fill="#eeeeee" stroke="none" font-family="Arial" font-size="24px" font-style="normal" font-weight="normal" text-decoration="none" x="400" y="90">UNREGISTERED</text><text fill="#eeeeee" stroke="none" font-family="Arial" font-size="24px" font-style="normal" font-weight="normal" text-decoration="none" x="400" y="120">UNREGISTERED</text><text fill="#eeeeee" stroke="none" font-family="Arial" font-size="24px" font-style="normal" font-weight="normal" text-decoration="none" x="400" y="150">UNREGISTERED</text><text fill="#eeeeee" stroke="none" font-family="Arial" font-size="24px" font-style="normal" font-weight="normal" text-decoration="none" x="400" y="180">UNREGISTERED</text><text fill="#eeeeee" stroke="none" font-family="Arial" font-size="24px" font-style="normal" font-weight="normal" text-decoration="none" x="400" y="210">UNREGISTERED</text><text fill="#eeeeee" stroke="none" font-family="Arial" font-size="24px" font-style="normal" font-weight="normal" text-decoration="none" x="400" y="240">UNREGISTERED</text><text fill="#eeeeee" stroke="none" font-family="Arial" font-size="24px" font-style="normal" font-weight="normal" text-decoration="none" x="400" y="270">UNREGISTERED</text><text fill="#eeeeee" stroke="none" font-family="Arial" font-size="24px" font-style="normal" font-weight="normal" text-decoration="none" x="400" y="300">UNREGISTERED</text><text fill="#eeeeee" stroke="none" font-family="Arial" font-size="24px" font-style="normal" font-weight="normal" text-decoration="none" x="400" y="330">UNREGISTERED</text><text fill="#eeeeee" stroke="none" font-family="Arial" font-size="24px" font-style="normal" font-weight="normal" text-decoration="none" x="400" y="360">UNREGISTERED</text><text fill="#eeeeee" stroke="none" font-family="Arial" font-size="24px" font-style="normal" font-weight="normal" text-decoration="none" x="400" y="390">UNREGISTERED</text><text fill="#eeeeee" stroke="none" font-family="Arial" font-size="24px" font-style="normal" font-weight="normal" text-decoration="none" x="400" y="420">UNREGISTERED</text><text fill="#eeeeee" stroke="none" font-family="Arial" font-size="24px" font-style="normal" font-weight="normal" text-decoration="none" x="600" y="0">UNREGISTERED</text><text fill="#eeeeee" stroke="none" font-family="Arial" font-size="24px" font-style="normal" font-weight="normal" text-decoration="none" x="600" y="30">UNREGISTERED</text><text fill="#eeeeee" stroke="none" font-family="Arial" font-size="24px" font-style="normal" font-weight="normal" text-decoration="none" x="600" y="60">UNREGISTERED</text><text fill="#eeeeee" stroke="none" font-family="Arial" font-size="24px" font-style="normal" font-weight="normal" text-decoration="none" x="600" y="90">UNREGISTERED</text><text fill="#eeeeee" stroke="none" font-family="Arial" font-size="24px" font-style="normal" font-weight="normal" text-decoration="none" x="600" y="120">UNREGISTERED</text><text fill="#eeeeee" stroke="none" font-family="Arial" font-size="24px" font-style="normal" font-weight="normal" text-decoration="none" x="600" y="150">UNREGISTERED</text><text fill="#eeeeee" stroke="none" font-family="Arial" font-size="24px" font-style="normal" font-weight="normal" text-decoration="none" x="600" y="180">UNREGISTERED</text><text fill="#eeeeee" stroke="none" font-family="Arial" font-size="24px" font-style="normal" font-weight="normal" text-decoration="none" x="600" y="210">UNREGISTERED</text><text fill="#eeeeee" stroke="none" font-family="Arial" font-size="24px" font-style="normal" font-weight="normal" text-decoration="none" x="600" y="240">UNREGISTERED</text><text fill="#eeeeee" stroke="none" font-family="Arial" font-size="24px" font-style="normal" font-weight="normal" text-decoration="none" x="600" y="270">UNREGISTERED</text><text fill="#eeeeee" stroke="none" font-family="Arial" font-size="24px" font-style="normal" font-weight="normal" text-decoration="none" x="600" y="300">UNREGISTERED</text><text fill="#eeeeee" stroke="none" font-family="Arial" font-size="24px" font-style="normal" font-weight="normal" text-decoration="none" x="600" y="330">UNREGISTERED</text><text fill="#eeeeee" stroke="none" font-family="Arial" font-size="24px" font-style="normal" font-weight="normal" text-decoration="none" x="600" y="360">UNREGISTERED</text><text fill="#eeeeee" stroke="none" font-family="Arial" font-size="24px" font-style="normal" font-weight="normal" text-decoration="none" x="600" y="390">UNREGISTERED</text><text fill="#eeeeee" stroke="none" font-family="Arial" font-size="24px" font-style="normal" font-weight="normal" text-decoration="none" x="600" y="420">UNREGISTERED</text><text fill="#eeeeee" stroke="none" font-family="Arial" font-size="24px" font-style="normal" font-weight="normal" text-decoration="none" x="800" y="0">UNREGISTERED</text><text fill="#eeeeee" stroke="none" font-family="Arial" font-size="24px" font-style="normal" font-weight="normal" text-decoration="none" x="800" y="30">UNREGISTERED</text><text fill="#eeeeee" stroke="none" font-family="Arial" font-size="24px" font-style="normal" font-weight="normal" text-decoration="none" x="800" y="60">UNREGISTERED</text><text fill="#eeeeee" stroke="none" font-family="Arial" font-size="24px" font-style="normal" font-weight="normal" text-decoration="none" x="800" y="90">UNREGISTERED</text><text fill="#eeeeee" stroke="none" font-family="Arial" font-size="24px" font-style="normal" font-weight="normal" text-decoration="none" x="800" y="120">UNREGISTERED</text><text fill="#eeeeee" stroke="none" font-family="Arial" font-size="24px" font-style="normal" font-weight="normal" text-decoration="none" x="800" y="150">UNREGISTERED</text><text fill="#eeeeee" stroke="none" font-family="Arial" font-size="24px" font-style="normal" font-weight="normal" text-decoration="none" x="800" y="180">UNREGISTERED</text><text fill="#eeeeee" stroke="none" font-family="Arial" font-size="24px" font-style="normal" font-weight="normal" text-decoration="none" x="800" y="210">UNREGISTERED</text><text fill="#eeeeee" stroke="none" font-family="Arial" font-size="24px" font-style="normal" font-weight="normal" text-decoration="none" x="800" y="240">UNREGISTERED</text><text fill="#eeeeee" stroke="none" font-family="Arial" font-size="24px" font-style="normal" font-weight="normal" text-decoration="none" x="800" y="270">UNREGISTERED</text><text fill="#eeeeee" stroke="none" font-family="Arial" font-size="24px" font-style="normal" font-weight="normal" text-decoration="none" x="800" y="300">UNREGISTERED</text><text fill="#eeeeee" stroke="none" font-family="Arial" font-size="24px" font-style="normal" font-weight="normal" text-decoration="none" x="800" y="330">UNREGISTERED</text><text fill="#eeeeee" stroke="none" font-family="Arial" font-size="24px" font-style="normal" font-weight="normal" text-decoration="none" x="800" y="360">UNREGISTERED</text><text fill="#eeeeee" stroke="none" font-family="Arial" font-size="24px" font-style="normal" font-weight="normal" text-decoration="none" x="800" y="390">UNREGISTERED</text><text fill="#eeeeee" stroke="none" font-family="Arial" font-size="24px" font-style="normal" font-weight="normal" text-decoration="none" x="800" y="420">UNREGISTERED</text><g transform="translate(-54,-38) scale(1,1)"><rect fill="#C0C0C0" stroke="none" x="143" y="55" width="736" height="423" opacity="0.2"/></g><g transform="translate(-54,-38) scale(1,1)"><rect fill="#ffffff" stroke="none" x="136" y="48" width="736" height="423"/></g><g transform="translate(-54,-38) scale(1,1)"><path fill="none" stroke="#000000" d="M 136 48 L 872 48 L 872 471 L 136 471 L 136 48 Z Z" stroke-miterlimit="10"/></g><g transform="translate(-54,-38) scale(1,1)"><g><path fill="none" stroke="none"/><text fill="#000000" stroke="none" font-family="Arial" font-size="13px" font-style="normal" font-weight="bold" text-decoration="none" x="476.905029296875" y="67.5">Ancestrel</text></g></g><g transform="translate(-54,-38) scale(1,1)"><path fill="#ffffff" stroke="none" d="M 91.60661594460227 241.68 C 91.60661594460227 236.886167936 95.49245826954773 233 100.285888671875 233 C 105.07931907420227 233 108.96516139914773 236.886167936 108.96516139914773 241.68 C 108.96516139914773 246.47383206400002 105.07931907420227 250.36 100.285888671875 250.36 C 95.49245826954773 250.36 91.60661594460227 246.47383206400002 91.60661594460227 241.68 Z"/></g><g transform="translate(-54,-38) scale(1,1)"><path fill="none" stroke="#000000" d="M 91.60661594460227 241.68 C 91.60661594460227 236.886167936 95.49245826954773 233 100.285888671875 233 C 105.07931907420227 233 108.96516139914773 236.886167936 108.96516139914773 241.68 C 108.96516139914773 246.47383206400002 105.07931907420227 250.36 100.285888671875 250.36 C 95.49245826954773 250.36 91.60661594460227 246.47383206400002 91.60661594460227 241.68 Z" stroke-miterlimit="10"/></g><g transform="translate(-54,-38) scale(1,1)"><path fill="none" stroke="#000000" d="M 100.285888671875 250.36 L 100.285888671875 267.64" stroke-miterlimit="10"/></g><g transform="translate(-54,-38) scale(1,1)"><path fill="none" stroke="#000000" d="M 91.09607049005682 256.84 L 109.47570685369318 256.84" stroke-miterlimit="10"/></g><g transform="translate(-54,-38) scale(1,1)"><path fill="none" stroke="#000000" d="M 100.285888671875 267.64 L 87.52225230823863 285" stroke-miterlimit="10"/></g><g transform="translate(-54,-38) scale(1,1)"><path fill="none" stroke="#000000" d="M 100.285888671875 267.64 L 113.04952503551137 285" stroke-miterlimit="10"/></g><g transform="translate(-54,-38) scale(1,1)"><g><path fill="none" stroke="none"/><text fill="#000000" stroke="none" font-family="Arial" font-size="13px" font-style="normal" font-weight="bold" text-decoration="none" x="71.38818359375" y="305.5">Utilisateur</text></g></g><g transform="translate(-54,-38) scale(1,1)"><path fill="#C0C0C0" stroke="none" d="M 247 136 C 247 126.6111584 281.2502128 119 323.5 119 C 365.7497872 119 400 126.6111584 400 136 C 400 145.3888416 365.7497872 153 323.5 153 C 281.2502128 153 247 145.3888416 247 136 Z" opacity="0.2"/></g><g transform="translate(-54,-38) scale(1,1)"><path fill="#ffffff" stroke="none" d="M 240 129 C 240 119.6111584 274.2502128 112 316.5 112 C 358.7497872 112 393 119.6111584 393 129 C 393 138.3888416 358.7497872 146 316.5 146 C 274.2502128 146 240 138.3888416 240 129 Z"/></g><g transform="translate(-54,-38) scale(1,1)"><path fill="none" stroke="#000000" d="M 240 129 C 240 119.6111584 274.2502128 112 316.5 112 C 358.7497872 112 393 119.6111584 393 129 C 393 138.3888416 358.7497872 146 316.5 146 C 274.2502128 146 240 138.3888416 240 129 Z" stroke-miterlimit="10"/></g><g transform="translate(-54,-38) scale(1,1)"><g><path fill="none" stroke="none"/><text fill="#000000" stroke="none" font-family="Arial" font-size="13px" font-style="normal" font-weight="bold" text-decoration="none" x="270.98095703125" y="136">Consulter Arbre</text></g></g><g transform="translate(-54,-38) scale(1,1)"><path fill="#C0C0C0" stroke="none" d="M 247 224 C 247 214.6111584 277.8923488 207 316 207 C 354.1076512 207 385 214.6111584 385 224 C 385 233.3888416 354.1076512 241 316 241 C 277.8923488 241 247 233.3888416 247 224 Z" opacity="0.2"/></g><g transform="translate(-54,-38) scale(1,1)"><path fill="#ffffff" stroke="none" d="M 240 217 C 240 207.6111584 270.8923488 200 309 200 C 347.1076512 200 378 207.6111584 378 217 C 378 226.3888416 347.1076512 234 309 234 C 270.8923488 234 240 226.3888416 240 217 Z"/></g><g transform="translate(-54,-38) scale(1,1)"><path fill="none" stroke="#000000" d="M 240 217 C 240 207.6111584 270.8923488 200 309 200 C 347.1076512 200 378 207.6111584 378 217 C 378 226.3888416 347.1076512 234 309 234 C 270.8923488 234 240 226.3888416 240 217 Z" stroke-miterlimit="10"/></g><g transform="translate(-54,-38) scale(1,1)"><g><path fill="none" stroke="none"/><text fill="#000000" stroke="none" font-family="Arial" font-size="13px" font-style="normal" font-weight="bold" text-decoration="none" x="268.181396484375" y="224">Modifier Arbre</text></g></g><g transform="translate(-54,-38) scale(1,1)"><path fill="#C0C0C0" stroke="none" d="M 503 216 C 503 206.6111584 542.3989376 199 591 199 C 639.6010624 199 679 206.6111584 679 216 C 679 225.3888416 639.6010624 233 591 233 C 542.3989376 233 503 225.3888416 503 216 Z" opacity="0.2"/></g><g transform="translate(-54,-38) scale(1,1)"><path fill="#ffffff" stroke="none" d="M 496 209 C 496 199.6111584 535.3989376 192 584 192 C 632.6010624 192 672 199.6111584 672 209 C 672 218.3888416 632.6010624 226 584 226 C 535.3989376 226 496 218.3888416 496 209 Z"/></g><g transform="translate(-54,-38) scale(1,1)"><path fill="none" stroke="#000000" d="M 496 209 C 496 199.6111584 535.3989376 192 584 192 C 632.6010624 192 672 199.6111584 672 209 C 672 218.3888416 632.6010624 226 584 226 C 535.3989376 226 496 218.3888416 496 209 Z" stroke-miterlimit="10"/></g><g transform="translate(-54,-38) scale(1,1)"><g><path fill="none" stroke="none"/><text fill="#000000" stroke="none" font-family="Arial" font-size="13px" font-style="normal" font-weight="bold" text-decoration="none" x="530.8828125" y="216">Ajouter Ascendant</text></g></g><g transform="translate(-54,-38) scale(1,1)"><path fill="#C0C0C0" stroke="none" d="M 487 280 C 487 270.6111584 532.6669504 263 589 263 C 645.3330496 263 691 270.6111584 691 280 C 691 289.3888416 645.3330496 297 589 297 C 532.6669504 297 487 289.3888416 487 280 Z" opacity="0.2"/></g><g transform="translate(-54,-38) scale(1,1)"><path fill="#ffffff" stroke="none" d="M 480 273 C 480 263.6111584 525.6669504 256 582 256 C 638.3330496 256 684 263.6111584 684 273 C 684 282.3888416 638.3330496 290 582 290 C 525.6669504 290 480 282.3888416 480 273 Z"/></g><g transform="translate(-54,-38) scale(1,1)"><path fill="none" stroke="#000000" d="M 480 273 C 480 263.6111584 525.6669504 256 582 256 C 638.3330496 256 684 263.6111584 684 273 C 684 282.3888416 638.3330496 290 582 290 C 525.6669504 290 480 282.3888416 480 273 Z" stroke-miterlimit="10"/></g><g transform="translate(-54,-38) scale(1,1)"><g><path fill="none" stroke="none"/><text fill="#000000" stroke="none" font-family="Arial" font-size="13px" font-style="normal" font-weight="bold" text-decoration="none" x="531.894775390625" y="280">Effacer Personne</text></g></g><g transform="translate(-54,-38) scale(1,1)"><path fill="#C0C0C0" stroke="none" d="M 487 352 C 487 342.6111584 527.9659408 335 578.5 335 C 629.0340592 335 670 342.6111584 670 352 C 670 361.3888416 629.0340592 369 578.5 369 C 527.9659408 369 487 361.3888416 487 352 Z" opacity="0.2"/></g><g transform="translate(-54,-38) scale(1,1)"><path fill="#ffffff" stroke="none" d="M 480 345 C 480 335.6111584 520.9659408 328 571.5 328 C 622.0340592 328 663 335.6111584 663 345 C 663 354.3888416 622.0340592 362 571.5 362 C 520.9659408 362 480 354.3888416 480 345 Z"/></g><g transform="translate(-54,-38) scale(1,1)"><path fill="none" stroke="#000000" d="M 480 345 C 480 335.6111584 520.9659408 328 571.5 328 C 622.0340592 328 663 335.6111584 663 345 C 663 354.3888416 622.0340592 362 571.5 362 C 520.9659408 362 480 354.3888416 480 345 Z" stroke-miterlimit="10"/></g><g transform="translate(-54,-38) scale(1,1)"><g><path fill="none" stroke="none"/><text fill="#000000" stroke="none" font-family="Arial" font-size="13px" font-style="normal" font-weight="bold" text-decoration="none" x="518.7509765625" y="352">Modifier Personne</text></g></g><g transform="translate(-54,-38) scale(1,1)"><path fill="#C0C0C0" stroke="none" d="M 199 384 C 199 374.6111584 243.3238048 367 298 367 C 352.6761952 367 397 374.6111584 397 384 C 397 393.3888416 352.6761952 401 298 401 C 243.3238048 401 199 393.3888416 199 384 Z" opacity="0.2"/></g><g transform="translate(-54,-38) scale(1,1)"><path fill="#ffffff" stroke="none" d="M 192 377 C 192 367.6111584 236.3238048 360 291 360 C 345.6761952 360 390 367.6111584 390 377 C 390 386.3888416 345.6761952 394 291 394 C 236.3238048 394 192 386.3888416 192 377 Z"/></g><g transform="translate(-54,-38) scale(1,1)"><path fill="none" stroke="#000000" d="M 192 377 C 192 367.6111584 236.3238048 360 291 360 C 345.6761952 360 390 367.6111584 390 377 C 390 386.3888416 345.6761952 394 291 394 C 236.3238048 394 192 386.3888416 192 377 Z" stroke-miterlimit="10"/></g><g transform="translate(-54,-38) scale(1,1)"><g><path fill="none" stroke="none"/><text fill="#000000" stroke="none" font-family="Arial" font-size="13px" font-style="normal" font-weight="bold" text-decoration="none" x="233.550537109375" y="384">Consulter Personne</text></g></g><g transform="translate(-54,-38) scale(1,1)"><path fill="none" stroke="#000000" d="M 138 246 L 289 147" stroke-miterlimit="10"/></g><g transform="translate(-54,-38) scale(1,1)"><path fill="none" stroke="#000000" d="M 138 261 L 239 235" stroke-miterlimit="10"/></g><g transform="translate(-54,-38) scale(1,1)"><path fill="none" stroke="#000000" d="M 479 356 L 391 366" stroke-miterlimit="10" stroke-dasharray="3"/></g><g transform="translate(-54,-38) scale(1,1)"><path fill="none" stroke="#000000" d="M 400.6223918046061 360.669936589622 L 391 366 L 401.57298247790334 369.03513451463823" stroke-miterlimit="10"/></g><g transform="translate(-54,-38) scale(1,1)"><g><path fill="none" stroke="none"/><text fill="#000000" stroke="none" font-family="Arial" font-size="13px" font-style="normal" font-weight="normal" text-decoration="none" x="418.5" y="381.5">«include»</text></g></g><g transform="translate(-54,-38) scale(1,1)"><path fill="none" stroke="#000000" d="M 494 255 L 379 231" stroke-miterlimit="10" stroke-dasharray="3"/></g><g transform="translate(-54,-38) scale(1,1)"><path fill="none" stroke="#000000" d="M 389.8083193207082 228.95543807586935 L 379 231 L 388.088359486011 237.19691228379378" stroke-miterlimit="10"/></g><g transform="translate(-54,-38) scale(1,1)"><g><path fill="none" stroke="none"/><text fill="#000000" stroke="none" font-family="Arial" font-size="13px" font-style="normal" font-weight="normal" text-decoration="none" x="431.5" y="236.5">«extend»</text></g></g><g transform="translate(-54,-38) scale(1,1)"><path fill="none" stroke="#000000" d="M 495 212 L 379 215" stroke-miterlimit="10" stroke-dasharray="3"/></g><g transform="translate(-54,-38) scale(1,1)"><path fill="none" stroke="#000000" d="M 389.0504474770664 210.52914935267023 L 379 215 L 389.26810837539205 218.94537075459377" stroke-miterlimit="10"/></g><g transform="translate(-54,-38) scale(1,1)"><g><path fill="none" stroke="none"/><text fill="#000000" stroke="none" font-family="Arial" font-size="13px" font-style="normal" font-weight="normal" text-decoration="none" x="407.5" y="207.5">«extend»</text></g></g><g transform="translate(-54,-38) scale(1,1)"><path fill="none" stroke="#000000" d="M 310 199 L 315 147" stroke-miterlimit="10" stroke-dasharray="3"/></g><g transform="translate(-54,-38) scale(1,1)"><path fill="none" stroke="#000000" d="M 318.21749791392995 157.51892138832952 L 315 147 L 309.83711394893743 156.71311523784948" stroke-miterlimit="10"/></g><g transform="translate(-54,-38) scale(1,1)"><g><path fill="none" stroke="none"/><text fill="#000000" stroke="none" font-family="Arial" font-size="13px" font-style="normal" font-weight="normal" text-decoration="none" x="255.5" y="188.5">«extend»</text></g></g><g transform="translate(-54,-38) scale(1,1)"><path fill="#C0C0C0" stroke="none" d="M 487 136 C 487 126.6111584 509.6096176 119 537.5 119 C 565.3903824 119 588 126.6111584 588 136 C 588 145.3888416 565.3903824 153 537.5 153 C 509.6096176 153 487 145.3888416 487 136 Z" opacity="0.2"/></g><g transform="translate(-54,-38) scale(1,1)"><path fill="#ffffff" stroke="none" d="M 480 129 C 480 119.6111584 502.6096176 112 530.5 112 C 558.3903824 112 581 119.6111584 581 129 C 581 138.3888416 558.3903824 146 530.5 146 C 502.6096176 146 480 138.3888416 480 129 Z"/></g><g transform="translate(-54,-38) scale(1,1)"><path fill="none" stroke="#000000" d="M 480 129 C 480 119.6111584 502.6096176 112 530.5 112 C 558.3903824 112 581 119.6111584 581 129 C 581 138.3888416 558.3903824 146 530.5 146 C 502.6096176 146 480 138.3888416 480 129 Z" stroke-miterlimit="10"/></g><g transform="translate(-54,-38) scale(1,1)"><g><path fill="none" stroke="none"/><text fill="#000000" stroke="none" font-family="Arial" font-size="13px" font-style="normal" font-weight="bold" text-decoration="none" x="513.891357421875" y="136">Filtrer</text></g></g><g transform="translate(-54,-38) scale(1,1)"><path fill="none" stroke="#000000" d="M 479 129 L 394 129" stroke-miterlimit="10" stroke-dasharray="3"/></g><g transform="translate(-54,-38) scale(1,1)"><path fill="none" stroke="#000000" d="M 404.16267485762415 124.79048224398402 L 394 129 L 404.16267485762415 133.209517756016" stroke-miterlimit="10"/></g><g transform="translate(-54,-38) scale(1,1)"><g><path fill="none" stroke="none"/><text fill="#000000" stroke="none" font-family="Arial" font-size="13px" font-style="normal" font-weight="normal" text-decoration="none" x="415.5" y="147.5">«extend»</text></g></g><g transform="translate(-54,-38) scale(1,1)"><path fill="#C0C0C0" stroke="none" d="M 743 384 C 743 374.6111584 772.9969184 367 810 367 C 847.0030816 367 877 374.6111584 877 384 C 877 393.3888416 847.0030816 401 810 401 C 772.9969184 401 743 393.3888416 743 384 Z" opacity="0.2"/></g><g transform="translate(-54,-38) scale(1,1)"><path fill="#ffffff" stroke="none" d="M 736 377 C 736 367.6111584 765.9969184 360 803 360 C 840.0030816 360 870 367.6111584 870 377 C 870 386.3888416 840.0030816 394 803 394 C 765.9969184 394 736 386.3888416 736 377 Z"/></g><g transform="translate(-54,-38) scale(1,1)"><path fill="none" stroke="#000000" d="M 736 377 C 736 367.6111584 765.9969184 360 803 360 C 840.0030816 360 870 367.6111584 870 377 C 870 386.3888416 840.0030816 394 803 394 C 765.9969184 394 736 386.3888416 736 377 Z" stroke-miterlimit="10"/></g><g transform="translate(-54,-38) scale(1,1)"><g><path fill="none" stroke="none"/><text fill="#000000" stroke="none" font-family="Arial" font-size="13px" font-style="normal" font-weight="bold" text-decoration="none" x="763.266845703125" y="384">Modifier Docs</text></g></g><g transform="translate(-54,-38) scale(1,1)"><path fill="#C0C0C0" stroke="none" d="M 711 440 C 711 430.6111584 740.7730607999999 423 777.5 423 C 814.2269392000001 423 844 430.6111584 844 440 C 844 449.3888416 814.2269392000001 457 777.5 457 C 740.7730607999999 457 711 449.3888416 711 440 Z" opacity="0.2"/></g><g transform="translate(-54,-38) scale(1,1)"><path fill="#ffffff" stroke="none" d="M 704 433 C 704 423.6111584 733.7730607999999 416 770.5 416 C 807.2269392000001 416 837 423.6111584 837 433 C 837 442.3888416 807.2269392000001 450 770.5 450 C 733.7730607999999 450 704 442.3888416 704 433 Z"/></g><g transform="translate(-54,-38) scale(1,1)"><path fill="none" stroke="#000000" d="M 704 433 C 704 423.6111584 733.7730607999999 416 770.5 416 C 807.2269392000001 416 837 423.6111584 837 433 C 837 442.3888416 807.2269392000001 450 770.5 450 C 733.7730607999999 450 704 442.3888416 704 433 Z" stroke-miterlimit="10"/></g><g transform="translate(-54,-38) scale(1,1)"><g><path fill="none" stroke="none"/><text fill="#000000" stroke="none" font-family="Arial" font-size="13px" font-style="normal" font-weight="bold" text-decoration="none" x="731.845947265625" y="440">Modifier infos</text></g></g><g transform="translate(-54,-38) scale(1,1)"><path fill="none" stroke="#000000" d="M 192 360 L 192 154 M 192 154 A 8 8 0 0 1 200 146 L 240 146" stroke-miterlimit="10" stroke-dasharray="3"/></g><g transform="translate(-54,-38) scale(1,1)"><path fill="none" stroke="#000000" d="M 229.83732514237585 150.209517756016 L 240 146 L 229.83732514237585 141.790482243984" stroke-miterlimit="10"/></g><g transform="translate(-54,-38) scale(1,1)"><g><path fill="none" stroke="none"/><text fill="#000000" stroke="none" font-family="Arial" font-size="13px" font-style="normal" font-weight="normal" text-decoration="none" x="124.5" y="186.5">«extend»</text></g></g><g transform="translate(-54,-38) scale(1,1)"><path fill="#ffffff" stroke="none" d="M 968.4093503196023 105.68 C 968.4093503196023 100.886167936 972.2951926445477 97 977.088623046875 97 C 981.8820534492023 97 985.7678957741477 100.886167936 985.7678957741477 105.68 C 985.7678957741477 110.473832064 981.8820534492023 114.36 977.088623046875 114.36 C 972.2951926445477 114.36 968.4093503196023 110.473832064 968.4093503196023 105.68 Z"/></g><g transform="translate(-54,-38) scale(1,1)"><path fill="none" stroke="#000000" d="M 968.4093503196023 105.68 C 968.4093503196023 100.886167936 972.2951926445477 97 977.088623046875 97 C 981.8820534492023 97 985.7678957741477 100.886167936 985.7678957741477 105.68 C 985.7678957741477 110.473832064 981.8820534492023 114.36 977.088623046875 114.36 C 972.2951926445477 114.36 968.4093503196023 110.473832064 968.4093503196023 105.68 Z" stroke-miterlimit="10"/></g><g transform="translate(-54,-38) scale(1,1)"><path fill="none" stroke="#000000" d="M 977.088623046875 114.36 L 977.088623046875 131.64" stroke-miterlimit="10"/></g><g transform="translate(-54,-38) scale(1,1)"><path fill="none" stroke="#000000" d="M 967.8988048650568 120.84 L 986.2784412286932 120.84" stroke-miterlimit="10"/></g><g transform="translate(-54,-38) scale(1,1)"><path fill="none" stroke="#000000" d="M 977.088623046875 131.64 L 964.3249866832386 149" stroke-miterlimit="10"/></g><g transform="translate(-54,-38) scale(1,1)"><path fill="none" stroke="#000000" d="M 977.088623046875 131.64 L 989.8522594105114 149" stroke-miterlimit="10"/></g><g transform="translate(-54,-38) scale(1,1)"><g><path fill="none" stroke="none"/><text fill="#000000" stroke="none" font-family="Arial" font-size="13px" font-style="normal" font-weight="bold" text-decoration="none" x="963.364990234375" y="169.5">BDD</text></g></g><g transform="translate(-54,-38) scale(1,1)"><path fill="none" stroke="#000000" d="M 378 200 L 378 176 M 378 176 A 8 8 0 0 1 386 168 L 952 168" stroke-miterlimit="10"/></g><g transform="translate(-54,-38) scale(1,1)"><path fill="none" stroke="#000000" d="M 393 146 L 393 152 L 952 152" stroke-miterlimit="10"/></g><g transform="translate(-54,-38) scale(1,1)"><path fill="none" stroke="#000000" d="M 664 339 L 816 328 L 619 227" stroke-miterlimit="10" stroke-dasharray="3"/></g><g transform="translate(-54,-38) scale(1,1)"><path fill="none" stroke="#000000" d="M 629.9638904283267 227.8905653685406 L 619 227 L 626.1229164588713 235.38236608124112" stroke-miterlimit="10"/></g><g transform="translate(-54,-38) scale(1,1)"><g><path fill="none" stroke="none"/><text fill="#000000" stroke="none" font-family="Arial" font-size="13px" font-style="normal" font-weight="normal" text-decoration="none" x="743.5" y="348.5">«extend»</text></g></g><g transform="translate(-54,-38) scale(1,1)"><path fill="none" stroke="#000000" d="M 729 415 L 612 363" stroke-miterlimit="10" stroke-dasharray="3"/></g><g transform="translate(-54,-38) scale(1,1)"><path fill="none" stroke="#000000" d="M 622.9964167340228 363.28074723810596 L 612 363 L 619.5771225655166 370.9741591172449" stroke-miterlimit="10"/></g><g transform="translate(-54,-38) scale(1,1)"><g><path fill="none" stroke="none"/><text fill="#000000" stroke="none" font-family="Arial" font-size="13px" font-style="normal" font-weight="normal" text-decoration="none" x="630.5" y="422.5">«extend»</text></g></g><g transform="translate(-54,-38) scale(1,1)"><path fill="none" stroke="#000000" d="M 735 368 L 664 358" stroke-miterlimit="10" stroke-dasharray="3"/></g><g transform="translate(-54,-38) scale(1,1)"><path fill="none" stroke="#000000" d="M 674.6504452259077 355.2489971846726 L 664 358 L 673.4762547876766 363.58574929611393" stroke-miterlimit="10"/></g><g transform="translate(-54,-38) scale(1,1)"><g><path fill="none" stroke="none"/><text fill="#000000" stroke="none" font-family="Arial" font-size="13px" font-style="normal" font-weight="normal" text-decoration="none" x="667.5" y="380.5">«extend»</text></g></g></g></svg>