<svg version="1.1" xmlns="http://www.w3.org/2000/svg" xmlns:xlink="http://www.w3.org/1999/xlink" width="982.17724609375" height="443"><defs/><g><text fill="#eeeeee" stroke="none" font-family="Arial" font-size="24px" font-style="normal" font-weight="normal" text-decoration="none" x="0" y="0">UNREGISTERED</text><text fill="#eeeeee" stroke="none" font-family="Arial" font-size="24px" font-style="normal" font-weight="normal" text-decoration="none" x="0" y="30">UNREGISTERED</text><text fill="#eeeeee" stroke="none" font-family="Arial" font-size="24px" font-style="normal" font-weight="normal" text-decoration="none" x="0" y="60">UNREGISTERED</text><text fill="#eeeeee" stroke="none" font-family="Arial" font-size="24px" font-style="normal" font-weight="normal" text-decoration="none" x="0" y="90">UNREGISTERED</text><text fill="#eeeeee" stroke="none" font-family="Arial" font-size="24px" font-style="normal" font-weight="normal" text-decoration="none" x="0" y="120">UNREGISTERED</text><text fill="#eeeeee" stroke="none" font-family="Arial" font-size="24px" font-style="normal" font-weight="normal" text-decoration="none" x="0" y="150">UNREGISTERED</text><text fill="#eeeeee" stroke="none" font-family="Arial" font-size="24px" font-style="normal" font-weight="normal" text-decoration="none" x="0" y="180">UNREGISTERED</text><text fill="#eeeeee" stroke="none" font-family="Arial" font-size="24px" font-style="normal" font-weight="normal" text-decoration="none" x="0" y="210">UNREGISTERED</text><text fill="#eeeeee" stroke="none" font-family="Arial" font-size="24px" font-style="normal" font-weight="normal" text-decoration="none" x="0" y="240">UNREGISTERED</text><text fill="#eeeeee" stroke="none" font-family="Arial" font-size="24px" font-style="normal" font-weight="normal" text-decoration="none" x="0" y="270">UNREGISTERED</text><text fill="#eeeeee" stroke="none" font-family="Arial" font-size="24px" font-style="normal" font-weight="normal" text-decoration="none" x="0" y="300">UNREGISTERED</text><text fill="#eeeeee" stroke="none" font-family="Arial" font-size="24px" font-style="normal" font-weight="normal" text-decoration="none" x="0" y="330">UNREGISTERED</text><text fill="#eeeeee" stroke="none" font-family="Arial" font-size="24px" font-style="normal" font-weight="normal" text-decoration="none" x="0" y="360">UNREGISTERED</text><text fill="#eeeeee" stroke="none" font-family="Arial" font-size="24px" font-style="normal" font-weight="normal" text-decoration="none" x="0" y="390">UNREGISTERED</text><text fill="#eeeeee" stroke="none" font-family="Arial" font-size="24px" font-style="normal" font-weight="normal" text-decoration="none" x="0" y="420">UNREGISTERED</text><text fill="#eeeeee" stroke="none" font-family="Arial" font-size="24px" font-style="normal" font-weight="normal" text-decoration="none" x="200" y="0">UNREGISTERED</text><text fill="#eeeeee" stroke="none" font-family="Arial" font-size="24px" font-style="normal" font-weight="normal" text-decoration="none" x="200" y="30">UNREGISTERED</text><text fill="#eeeeee" stroke="none" font-family="Arial" font-size="24px" font-style="normal" font-weight="normal" text-decoration="none" x="200" y="60">UNREGISTERED</text><text fill="#eeeeee" stroke="none" font-family="Arial" font-size="24px" font-style="normal" font-weight="normal" text-decoration="none" x="200" y="90">UNREGISTERED</text><text fill="#eeeeee" stroke="none" font-family="Arial" font-size="24px" font-style="normal" font-weight="normal" text-decoration="none" x="200" y="120">UNREGISTERED</text><text fill="#eeeeee" stroke="none" font-family="Arial" font-size="24px" font-style="normal" font-weight="normal" text-decoration="none" x="200" y="150">UNREGISTERED</text><text fill="#eeeeee" stroke="none" font-family="Arial" font-size="24px" font-style="normal" font-weight="normal" text-decoration="none" x="200" y="180">UNREGISTERED</text><text fill="#eeeeee" stroke="none" font-family="Arial" font-size="24px" font-style="normal" font-weight="normal" text-decoration="none" x="200" y="210">UNREGISTERED</text><text fill="#eeeeee" stroke="none" font-family="Arial" font-size="24px" font-style="normal" font-weight="normal" text-decoration="none" x="200" y="240">UNREGISTERED</text><text fill="#eeeeee" stroke="none" font-family="Arial" font-size="24px" font-style="normal" font-weight="normal" text-decoration="none" x="200" y="270">UNREGISTERED</text><text fill="#eeeeee" stroke="none" font-family="Arial" font-size="24px" font-style="normal" font-weight="normal" text-decoration="none" x="200" y="300">UNREGISTERED</text><text fill="#eeeeee" stroke="none" font-family="Arial" font-size="24px" font-style="normal" font-weight="normal" text-decoration="none" x="200" y="330">UNREGISTERED</text><text fill="#eeeeee" stroke="none" font-family="Arial" font-size="24px" font-style="normal" font-weight="normal" text-decoration="none" x="200" y="360">UNREGISTERED</text><text fill="#eeeeee" stroke="none" font-family="Arial" font-size="24px" font-style="normal" font-weight="normal" text-decoration="none" x="200" y="390">UNREGISTERED</text><text fill="#eeeeee" stroke="none" font-family="Arial" font-size="24px" font-style="normal" font-weight="normal" text-decoration="none" x="200" y="420">UNREGISTERED</text><text fill="#eeeeee" stroke="none" font-family="Arial" font-size="24px" font-style="normal" font-weight="normal" text-decoration="none" x="400" y="0">UNREGISTERED</text><text fill="#eeeeee" stroke="none" font-family="Arial" font-size="24px" font-style="normal" font-weight="normal" text-decoration="none" x="400" y="30">UNREGISTERED</text><text fill="#eeeeee" stroke="none" font-family="Arial" font-size="24px" font-style="normal" font-weight="normal" text-decoration="none" x="400" y="60">UNREGISTERED</text><text fill="#eeeeee" stroke="none" font-family="Arial" font-size="24px" font-style="normal" font-weight="normal" text-decoration="none" x="400" y="90">UNREGISTERED</text><text fill="#eeeeee" stroke="none" font-family="Arial" font-size="24px" font-style="normal" font-weight="normal" text-decoration="none" x="400" y="120">UNREGISTERED</text><text fill="#eeeeee" stroke="none" font-family="Arial" font-size="24px" font-style="normal" font-weight="normal" text-decoration="none" x="400" y="150">UNREGISTERED</text><text fill="#eeeeee" stroke="none" font-family="Arial" font-size="24px" font-style="normal" font-weight="normal" text-decoration="none" x="400" y="180">UNREGISTERED</text><text fill="#eeeeee" stroke="none" font-family="Arial" font-size="24px" font-style="normal" font-weight="normal" text-decoration="none" x="400" y="210">UNREGISTERED</text><text fill="#eeeeee" stroke="none" font-family="Arial" font-size="24px" font-style="normal" font-weight="normal" text-decoration="none" x="400" y="240">UNREGISTERED</text><text fill="#eeeeee" stroke="none" font-family="Arial" font-size="24px" font-style="normal" font-weight="normal" text-decoration="none" x="400" y="270">UNREGISTERED</text><text fill="#eeeeee" stroke="none" font-family="Arial" font-size="24px" font-style="normal" font-weight="normal" text-decoration="none" x="400" y="300">UNREGISTERED</text><text fill="#eeeeee" stroke="none" font-family="Arial" font-size="24px" font-style="normal" font-weight="normal" text-decoration="none" x="400" y="330">UNREGISTERED</text><text fill="#eeeeee" stroke="none" font-family="Arial" font-size="24px" font-style="normal" font-weight="normal" text-decoration="none" x="400" y="360">UNREGISTERED</text><text fill="#eeeeee" stroke="none" font-family="Arial" font-size="24px" font-style="normal" font-weight="normal" text-decoration="none" x="400" y="390">UNREGISTERED</text><text fill="#eeeeee" stroke="none" font-family="Arial" font-size="24px" font-style="normal" font-weight="normal" text-decoration="none" x="400" y="420">UNREGISTERED</text><text fill="#eeeeee" stroke="none" font-family="Arial" font-size="24px" font-style="normal" font-weight="normal" text-decoration="none" x="600" y="0">UNREGISTERED</text><text fill="#eeeeee" stroke="none" font-family="Arial" font-size="24px" font-style="normal" font-weight="normal" text-decoration="none" x="600" y="30">UNREGISTERED</text><text fill="#eeeeee" stroke="none" font-family="Arial" font-size="24px" font-style="normal" font-weight="normal" text-decoration="none" x="600" y="60">UNREGISTERED</text><text fill="#eeeeee" stroke="none" font-family="Arial" font-size="24px" font-style="normal" font-weight="normal" text-decoration="none" x="600" y="90">UNREGISTERED</text><text fill="#eeeeee" stroke="none" font-family="Arial" font-size="24px" font-style="normal" font-weight="normal" text-decoration="none" x="600" y="120">UNREGISTERED</text><text fill="#eeeeee" stroke="none" font-family="Arial" font-size="24px" font-style="normal" font-weight="normal" text-decoration="none" x="600" y="150">UNREGISTERED</text><text fill="#eeeeee" stroke="none" font-family="Arial" font-size="24px" font-style="normal" font-weight="normal" text-decoration="none" x="600" y="180">UNREGISTERED</text><text fill="#eeeeee" stroke="none" font-family="Arial" font-size="24px" font-style="normal" font-weight="normal" text-decoration="none" x="600" y="210">UNREGISTERED</text><text fill="#eeeeee" stroke="none" font-family="Arial" font-size="24px" font-style="normal" font-weight="normal" text-decoration="none" x="600" y="240">UNREGISTERED</text><text fill="#eeeeee" stroke="none" font-family="Arial" font-size="24px" font-style="normal" font-weight="normal" text-decoration="none" x="600" y="270">UNREGISTERED</text><text fill="#eeeeee" stroke="none" font-family="Arial" font-size="24px" font-style="normal" font-weight="normal" text-decoration="none" x="600" y="300">UNREGISTERED</text><text fill="#eeeeee" stroke="none" font-family="Arial" font-size="24px" font-style="normal" font-weight="normal" text-decoration="none" x="600" y="330">UNREGISTERED</text><text fill="#eeeeee" stroke="none" font-family="Arial" font-size="24px" font-style="normal" font-weight="normal" text-decoration="none" x="600" y="360">UNREGISTERED</text><text fill="#eeeeee" stroke="none" font-family="Arial" font-size="24px" font-style="normal" font-weight="normal" text-decoration="none" x="600" y="390">UNREGISTERED</text><text fill="#eeeeee" stroke="none" font-family="Arial" font-size="24px" font-style="normal" font-weight="normal" text-decoration="none" x="600" y="420">UNREGISTERED</text><text fill="#eeeeee" stroke="none" font-family="Arial" font-size="24px" font-style="normal" font-weight="normal" text-decoration="none" x="800" y="0">UNREGISTERED</text><text fill="#eeeeee" stroke="none" font-family="Arial" font-size="24px" font-style="normal" font-weight="normal" text-decoration="none" x="800" y="30">UNREGISTERED</text><text fill="#eeeeee" stroke="none" font-family="Arial" font-size="24px" font-style="normal" font-weight="normal" text-decoration="none" x="800" y="60">UNREGISTERED</text><text fill="#eeeeee" stroke="none" font-family="Arial" font-size="24px" font-style="normal" font-weight="normal" text-decoration="none" x="800" y="90">UNREGISTERED</text><text fill="#eeeeee" stroke="none" font-family="Arial" font-size="24px" font-style="normal" font-weight="normal" text-decoration="none" x="800" y="120">UNREGISTERED</text><text fill="#eeeeee" stroke="none" font-family="Arial" font-size="24px" font-style="normal" font-weight="normal" text-decoration="none" x="800" y="150">UNREGISTERED</text><text fill="#eeeeee" stroke="none" font-family="Arial" font-size="24px" font-style="normal" font-weight="normal" text-decoration="none" x="800" y="180">UNREGISTERED</text><text fill="#eeeeee" stroke="none" font-family="Arial" font-size="24px" font-style="normal" font-weight="normal" text-decoration="none" x="800" y="210">UNREGISTERED</text><text fill="#eeeeee" stroke="none" font-family="Arial" font-size="24px" font-style="normal" font-weight="normal" text-decoration="none" x="800" y="240">UNREGISTERED</text><text fill="#eeeeee" stroke="none" font-family="Arial" font-size="24px" font-style="normal" font-weight="normal" text-decoration="none" x="800" y="270">UNREGISTERED</text><text fill="#eeeeee" stroke="none" font-family="Arial" font-size="24px" font-style="normal" font-weight="normal" text-decoration="none" x="800" y="300">UNREGISTERED</text><text fill="#eeeeee" stroke="none" font-family="Arial" font-size="24px" font-style="normal" font-weight="normal" text-decoration="none" x="800" y="330">UNREGISTERED</text><text fill="#eeeeee" stroke="none" font-family="Arial" font-size="24px" font-style="normal" font-weight="normal" text-decoration="none" x="800" y="360">UNREGISTERED</text><text fill="#eeeeee" stroke="none" font-family="Arial" font-size="24px" font-style="normal" font-weight="normal" text-decoration="none" x="800" y="390">UNREGISTERED</text><text fill="#eeeeee" stroke="none" font-family="Arial" font-size="24px" font-style="normal" font-weight="normal" text-decoration="none" x="800" y="420">UNREGISTERED</text><g transform="translate(-30,-38) scale(1,1)"><rect fill="#C0C0C0" stroke="none" x="143" y="55" width="736" height="423" opacity="0.2"/></g><g transform="translate(-30,-38) scale(1,1)"><rect fill="#ffffff" stroke="none" x="136" y="48" width="736" height="423"/></g><g transform="translate(-30,-38) scale(1,1)"><path fill="none" stroke="#000000" d="M 136 48 L 872 48 L 872 471 L 136 471 L 136 48 Z Z" stroke-miterlimit="10"/></g><g transform="translate(-30,-38) scale(1,1)"><g><path fill="none" stroke="none"/><text fill="#000000" stroke="none" font-family="Arial" font-size="13px" font-style="normal" font-weight="bold" text-decoration="none" x="476.905029296875" y="67.5">Ancestrel</text></g></g><g transform="translate(-30,-38) scale(1,1)"><path fill="#ffffff" stroke="none" d="M 67.60661594460227 217.68 C 67.60661594460227 212.886167936 71.49245826954773 209 76.285888671875 209 C 81.07931907420227 209 84.96516139914773 212.886167936 84.96516139914773 217.68 C 84.96516139914773 222.47383206400002 81.07931907420227 226.36 76.285888671875 226.36 C 71.49245826954773 226.36 67.60661594460227 222.47383206400002 67.60661594460227 217.68 Z"/></g><g transform="translate(-30,-38) scale(1,1)"><path fill="none" stroke="#000000" d="M 67.60661594460227 217.68 C 67.60661594460227 212.886167936 71.49245826954773 209 76.285888671875 209 C 81.07931907420227 209 84.96516139914773 212.886167936 84.96516139914773 217.68 C 84.96516139914773 222.47383206400002 81.07931907420227 226.36 76.285888671875 226.36 C 71.49245826954773 226.36 67.60661594460227 222.47383206400002 67.60661594460227 217.68 Z" stroke-miterlimit="10"/></g><g transform="translate(-30,-38) scale(1,1)"><path fill="none" stroke="#000000" d="M 76.285888671875 226.36 L 76.285888671875 243.64" stroke-miterlimit="10"/></g><g transform="translate(-30,-38) scale(1,1)"><path fill="none" stroke="#000000" d="M 67.09607049005682 232.84 L 85.47570685369318 232.84" stroke-miterlimit="10"/></g><g transform="translate(-30,-38) scale(1,1)"><path fill="none" stroke="#000000" d="M 76.285888671875 243.64 L 63.522252308238635 261" stroke-miterlimit="10"/></g><g transform="translate(-30,-38) scale(1,1)"><path fill="none" stroke="#000000" d="M 76.285888671875 243.64 L 89.04952503551137 261" stroke-miterlimit="10"/></g><g transform="translate(-30,-38) scale(1,1)"><g><path fill="none" stroke="none"/><text fill="#000000" stroke="none" font-family="Arial" font-size="13px" font-style="normal" font-weight="bold" text-decoration="none" x="47.38818359375" y="281.5">Utilisateur</text></g></g><g transform="translate(-30,-38) scale(1,1)"><path fill="#C0C0C0" stroke="none" d="M 215 128 C 215 118.6111584 249.25021279999999 111 291.5 111 C 333.7497872 111 368 118.6111584 368 128 C 368 137.3888416 333.7497872 145 291.5 145 C 249.25021279999999 145 215 137.3888416 215 128 Z" opacity="0.2"/></g><g transform="translate(-30,-38) scale(1,1)"><path fill="#ffffff" stroke="none" d="M 208 121 C 208 111.6111584 242.25021279999999 104 284.5 104 C 326.7497872 104 361 111.6111584 361 121 C 361 130.3888416 326.7497872 138 284.5 138 C 242.25021279999999 138 208 130.3888416 208 121 Z"/></g><g transform="translate(-30,-38) scale(1,1)"><path fill="none" stroke="#000000" d="M 208 121 C 208 111.6111584 242.25021279999999 104 284.5 104 C 326.7497872 104 361 111.6111584 361 121 C 361 130.3888416 326.7497872 138 284.5 138 C 242.25021279999999 138 208 130.3888416 208 121 Z" stroke-miterlimit="10"/></g><g transform="translate(-30,-38) scale(1,1)"><g><path fill="none" stroke="none"/><text fill="#000000" stroke="none" font-family="Arial" font-size="13px" font-style="normal" font-weight="bold" text-decoration="none" x="238.98095703125" y="128">Consulter Arbre</text></g></g><g transform="translate(-30,-38) scale(1,1)"><path fill="#C0C0C0" stroke="none" d="M 207 240 C 207 230.6111584 237.8923488 223 276 223 C 314.1076512 223 345 230.6111584 345 240 C 345 249.3888416 314.1076512 257 276 257 C 237.8923488 257 207 249.3888416 207 240 Z" opacity="0.2"/></g><g transform="translate(-30,-38) scale(1,1)"><path fill="#ffffff" stroke="none" d="M 200 233 C 200 223.6111584 230.8923488 216 269 216 C 307.1076512 216 338 223.6111584 338 233 C 338 242.3888416 307.1076512 250 269 250 C 230.8923488 250 200 242.3888416 200 233 Z"/></g><g transform="translate(-30,-38) scale(1,1)"><path fill="none" stroke="#000000" d="M 200 233 C 200 223.6111584 230.8923488 216 269 216 C 307.1076512 216 338 223.6111584 338 233 C 338 242.3888416 307.1076512 250 269 250 C 230.8923488 250 200 242.3888416 200 233 Z" stroke-miterlimit="10"/></g><g transform="translate(-30,-38) scale(1,1)"><g><path fill="none" stroke="none"/><text fill="#000000" stroke="none" font-family="Arial" font-size="13px" font-style="normal" font-weight="bold" text-decoration="none" x="228.181396484375" y="240">Modifier Arbre</text></g></g><g transform="translate(-30,-38) scale(1,1)"><path fill="#C0C0C0" stroke="none" d="M 671 232 C 671 222.6111584 710.3989376 215 759 215 C 807.6010624 215 847 222.6111584 847 232 C 847 241.3888416 807.6010624 249 759 249 C 710.3989376 249 671 241.3888416 671 232 Z" opacity="0.2"/></g><g transform="translate(-30,-38) scale(1,1)"><path fill="#ffffff" stroke="none" d="M 664 225 C 664 215.6111584 703.3989376 208 752 208 C 800.6010624 208 840 215.6111584 840 225 C 840 234.3888416 800.6010624 242 752 242 C 703.3989376 242 664 234.3888416 664 225 Z"/></g><g transform="translate(-30,-38) scale(1,1)"><path fill="none" stroke="#000000" d="M 664 225 C 664 215.6111584 703.3989376 208 752 208 C 800.6010624 208 840 215.6111584 840 225 C 840 234.3888416 800.6010624 242 752 242 C 703.3989376 242 664 234.3888416 664 225 Z" stroke-miterlimit="10"/></g><g transform="translate(-30,-38) scale(1,1)"><g><path fill="none" stroke="none"/><text fill="#000000" stroke="none" font-family="Arial" font-size="13px" font-style="normal" font-weight="bold" text-decoration="none" x="698.8828125" y="232">Ajouter Ascendant</text></g></g><g transform="translate(-30,-38) scale(1,1)"><path fill="#C0C0C0" stroke="none" d="M 431 272 C 431 262.6111584 476.6669504 255 533 255 C 589.3330496 255 635 262.6111584 635 272 C 635 281.3888416 589.3330496 289 533 289 C 476.6669504 289 431 281.3888416 431 272 Z" opacity="0.2"/></g><g transform="translate(-30,-38) scale(1,1)"><path fill="#ffffff" stroke="none" d="M 424 265 C 424 255.6111584 469.6669504 248 526 248 C 582.3330496 248 628 255.6111584 628 265 C 628 274.3888416 582.3330496 282 526 282 C 469.6669504 282 424 274.3888416 424 265 Z"/></g><g transform="translate(-30,-38) scale(1,1)"><path fill="none" stroke="#000000" d="M 424 265 C 424 255.6111584 469.6669504 248 526 248 C 582.3330496 248 628 255.6111584 628 265 C 628 274.3888416 582.3330496 282 526 282 C 469.6669504 282 424 274.3888416 424 265 Z" stroke-miterlimit="10"/></g><g transform="translate(-30,-38) scale(1,1)"><g><path fill="none" stroke="none"/><text fill="#000000" stroke="none" font-family="Arial" font-size="13px" font-style="normal" font-weight="bold" text-decoration="none" x="466.385986328125" y="272">Supprimer Personne</text></g></g><g transform="translate(-30,-38) scale(1,1)"><path fill="#C0C0C0" stroke="none" d="M 375 336 C 375 326.6111584 415.9659408 319 466.5 319 C 517.0340592 319 558 326.6111584 558 336 C 558 345.3888416 517.0340592 353 466.5 353 C 415.9659408 353 375 345.3888416 375 336 Z" opacity="0.2"/></g><g transform="translate(-30,-38) scale(1,1)"><path fill="#ffffff" stroke="none" d="M 368 329 C 368 319.6111584 408.9659408 312 459.5 312 C 510.0340592 312 551 319.6111584 551 329 C 551 338.3888416 510.0340592 346 459.5 346 C 408.9659408 346 368 338.3888416 368 329 Z"/></g><g transform="translate(-30,-38) scale(1,1)"><path fill="none" stroke="#000000" d="M 368 329 C 368 319.6111584 408.9659408 312 459.5 312 C 510.0340592 312 551 319.6111584 551 329 C 551 338.3888416 510.0340592 346 459.5 346 C 408.9659408 346 368 338.3888416 368 329 Z" stroke-miterlimit="10"/></g><g transform="translate(-30,-38) scale(1,1)"><g><path fill="none" stroke="none"/><text fill="#000000" stroke="none" font-family="Arial" font-size="13px" font-style="normal" font-weight="bold" text-decoration="none" x="406.7509765625" y="336">Modifier Personne</text></g></g><g transform="translate(-30,-38) scale(1,1)"><path fill="#C0C0C0" stroke="none" d="M 167 400 C 167 390.6111584 211.3238048 383 266 383 C 320.6761952 383 365 390.6111584 365 400 C 365 409.3888416 320.6761952 417 266 417 C 211.3238048 417 167 409.3888416 167 400 Z" opacity="0.2"/></g><g transform="translate(-30,-38) scale(1,1)"><path fill="#ffffff" stroke="none" d="M 160 393 C 160 383.6111584 204.3238048 376 259 376 C 313.6761952 376 358 383.6111584 358 393 C 358 402.3888416 313.6761952 410 259 410 C 204.3238048 410 160 402.3888416 160 393 Z"/></g><g transform="translate(-30,-38) scale(1,1)"><path fill="none" stroke="#000000" d="M 160 393 C 160 383.6111584 204.3238048 376 259 376 C 313.6761952 376 358 383.6111584 358 393 C 358 402.3888416 313.6761952 410 259 410 C 204.3238048 410 160 402.3888416 160 393 Z" stroke-miterlimit="10"/></g><g transform="translate(-30,-38) scale(1,1)"><g><path fill="none" stroke="none"/><text fill="#000000" stroke="none" font-family="Arial" font-size="13px" font-style="normal" font-weight="bold" text-decoration="none" x="201.550537109375" y="400">Consulter Personne</text></g></g><g transform="translate(-30,-38) scale(1,1)"><path fill="none" stroke="#000000" d="M 114 224 L 254 139" stroke-miterlimit="10"/></g><g transform="translate(-30,-38) scale(1,1)"><path fill="none" stroke="#000000" d="M 114 244 L 199 238" stroke-miterlimit="10"/></g><g transform="translate(-30,-38) scale(1,1)"><path fill="none" stroke="#000000" d="M 403 347 L 315 375" stroke-miterlimit="10" stroke-dasharray="3"/></g><g transform="translate(-30,-38) scale(1,1)"><path fill="none" stroke="#000000" d="M 323.4079336867264 367.90728182432065 L 315 375 L 325.96061604471896 375.9299978065831" stroke-miterlimit="10"/></g><g transform="translate(-30,-38) scale(1,1)"><g><path fill="none" stroke="none"/><text fill="#000000" stroke="none" font-family="Arial" font-size="13px" font-style="normal" font-weight="normal" text-decoration="none" x="345.5" y="378.5">«include»</text></g></g><g transform="translate(-30,-38) scale(1,1)"><path fill="none" stroke="#000000" d="M 423 252 L 339 242" stroke-miterlimit="10" stroke-dasharray="3"/></g><g transform="translate(-30,-38) scale(1,1)"><path fill="none" stroke="#000000" d="M 349.58903622661694 239.02135739112697 L 339 242 L 348.59379770953615 247.38136093460554" stroke-miterlimit="10"/></g><g transform="translate(-30,-38) scale(1,1)"><g><path fill="none" stroke="none"/><text fill="#000000" stroke="none" font-family="Arial" font-size="13px" font-style="normal" font-weight="normal" text-decoration="none" x="343.5" y="268.5">«extend»</text></g></g><g transform="translate(-30,-38) scale(1,1)"><path fill="none" stroke="#000000" d="M 663 222 L 512 216 L 339 228" stroke-miterlimit="10" stroke-dasharray="3"/></g><g transform="translate(-30,-38) scale(1,1)"><path fill="none" stroke="#000000" d="M 348.84702468944846 223.09733697207406 L 339 228 L 349.4296042053394 231.49619165950136" stroke-miterlimit="10"/></g><g transform="translate(-30,-38) scale(1,1)"><g><path fill="none" stroke="none"/><text fill="#000000" stroke="none" font-family="Arial" font-size="13px" font-style="normal" font-weight="normal" text-decoration="none" x="482.5" y="210.5">«extend»</text></g></g><g transform="translate(-30,-38) scale(1,1)"><path fill="none" stroke="#000000" d="M 271 215 L 282 139" stroke-miterlimit="10" stroke-dasharray="3"/></g><g transform="translate(-30,-38) scale(1,1)"><path fill="none" stroke="#000000" d="M 284.7103620794358 149.66086006841644 L 282 139 L 276.3781489581818 148.4548818534981" stroke-miterlimit="10"/></g><g transform="translate(-30,-38) scale(1,1)"><g><path fill="none" stroke="none"/><text fill="#000000" stroke="none" font-family="Arial" font-size="13px" font-style="normal" font-weight="normal" text-decoration="none" x="218.5" y="190.5">«extend»</text></g></g><g transform="translate(-30,-38) scale(1,1)"><path fill="#C0C0C0" stroke="none" d="M 471 120 C 471 110.6111584 493.6096176 103 521.5 103 C 549.3903824 103 572 110.6111584 572 120 C 572 129.3888416 549.3903824 137 521.5 137 C 493.6096176 137 471 129.3888416 471 120 Z" opacity="0.2"/></g><g transform="translate(-30,-38) scale(1,1)"><path fill="#ffffff" stroke="none" d="M 464 113 C 464 103.6111584 486.6096176 96 514.5 96 C 542.3903824 96 565 103.6111584 565 113 C 565 122.3888416 542.3903824 130 514.5 130 C 486.6096176 130 464 122.3888416 464 113 Z"/></g><g transform="translate(-30,-38) scale(1,1)"><path fill="none" stroke="#000000" d="M 464 113 C 464 103.6111584 486.6096176 96 514.5 96 C 542.3903824 96 565 103.6111584 565 113 C 565 122.3888416 542.3903824 130 514.5 130 C 486.6096176 130 464 122.3888416 464 113 Z" stroke-miterlimit="10"/></g><g transform="translate(-30,-38) scale(1,1)"><g><path fill="none" stroke="none"/><text fill="#000000" stroke="none" font-family="Arial" font-size="13px" font-style="normal" font-weight="bold" text-decoration="none" x="497.891357421875" y="120">Filtrer</text></g></g><g transform="translate(-30,-38) scale(1,1)"><path fill="none" stroke="#000000" d="M 463 115 L 362 118" stroke-miterlimit="10" stroke-dasharray="3"/></g><g transform="translate(-30,-38) scale(1,1)"><path fill="none" stroke="#000000" d="M 372.0332146682304 113.49060941798047 L 362 118 L 372.2831747885708 121.90593346944128" stroke-miterlimit="10"/></g><g transform="translate(-30,-38) scale(1,1)"><g><path fill="none" stroke="none"/><text fill="#000000" stroke="none" font-family="Arial" font-size="13px" font-style="normal" font-weight="normal" text-decoration="none" x="391.5" y="134.5">«extend»</text></g></g><g transform="translate(-30,-38) scale(1,1)"><path fill="#C0C0C0" stroke="none" d="M 671 336 C 671 326.6111584 713.3090864 319 765.5 319 C 817.6909136 319 860 326.6111584 860 336 C 860 345.3888416 817.6909136 353 765.5 353 C 713.3090864 353 671 345.3888416 671 336 Z" opacity="0.2"/></g><g transform="translate(-30,-38) scale(1,1)"><path fill="#ffffff" stroke="none" d="M 664 329 C 664 319.6111584 706.3090864 312 758.5 312 C 810.6909136 312 853 319.6111584 853 329 C 853 338.3888416 810.6909136 346 758.5 346 C 706.3090864 346 664 338.3888416 664 329 Z"/></g><g transform="translate(-30,-38) scale(1,1)"><path fill="none" stroke="#000000" d="M 664 329 C 664 319.6111584 706.3090864 312 758.5 312 C 810.6909136 312 853 319.6111584 853 329 C 853 338.3888416 810.6909136 346 758.5 346 C 706.3090864 346 664 338.3888416 664 329 Z" stroke-miterlimit="10"/></g><g transform="translate(-30,-38) scale(1,1)"><g><path fill="none" stroke="none"/><text fill="#000000" stroke="none" font-family="Arial" font-size="13px" font-style="normal" font-weight="bold" text-decoration="none" x="700.701416015625" y="336">Modifier Documents</text></g></g><g transform="translate(-30,-38) scale(1,1)"><path fill="#C0C0C0" stroke="none" d="M 655 416 C 655 406.6111584 699.9953776 399 755.5 399 C 811.0046224 399 856 406.6111584 856 416 C 856 425.3888416 811.0046224 433 755.5 433 C 699.9953776 433 655 425.3888416 655 416 Z" opacity="0.2"/></g><g transform="translate(-30,-38) scale(1,1)"><path fill="#ffffff" stroke="none" d="M 648 409 C 648 399.6111584 692.9953776 392 748.5 392 C 804.0046224 392 849 399.6111584 849 409 C 849 418.3888416 804.0046224 426 748.5 426 C 692.9953776 426 648 418.3888416 648 409 Z"/></g><g transform="translate(-30,-38) scale(1,1)"><path fill="none" stroke="#000000" d="M 648 409 C 648 399.6111584 692.9953776 392 748.5 392 C 804.0046224 392 849 399.6111584 849 409 C 849 418.3888416 804.0046224 426 748.5 426 C 692.9953776 426 648 418.3888416 648 409 Z" stroke-miterlimit="10"/></g><g transform="translate(-30,-38) scale(1,1)"><g><path fill="none" stroke="none"/><text fill="#000000" stroke="none" font-family="Arial" font-size="13px" font-style="normal" font-weight="bold" text-decoration="none" x="688.171875" y="416">Modifier informations</text></g></g><g transform="translate(-30,-38) scale(1,1)"><path fill="none" stroke="#000000" d="M 176 376 L 176 129 M 176 129 A 8 8 0 0 1 184 121 L 208 121" stroke-miterlimit="10" stroke-dasharray="3"/></g><g transform="translate(-30,-38) scale(1,1)"><path fill="none" stroke="#000000" d="M 197.83732514237585 125.20951775601598 L 208 121 L 197.83732514237585 116.79048224398402" stroke-miterlimit="10"/></g><g transform="translate(-30,-38) scale(1,1)"><g><path fill="none" stroke="none"/><text fill="#000000" stroke="none" font-family="Arial" font-size="13px" font-style="normal" font-weight="normal" text-decoration="none" x="167.5" y="315.5">«extend»</text></g></g><g transform="translate(-30,-38) scale(1,1)"><path fill="#ffffff" stroke="none" d="M 968.4093503196023 105.68 C 968.4093503196023 100.886167936 972.2951926445477 97 977.088623046875 97 C 981.8820534492023 97 985.7678957741477 100.886167936 985.7678957741477 105.68 C 985.7678957741477 110.473832064 981.8820534492023 114.36 977.088623046875 114.36 C 972.2951926445477 114.36 968.4093503196023 110.473832064 968.4093503196023 105.68 Z"/></g><g transform="translate(-30,-38) scale(1,1)"><path fill="none" stroke="#000000" d="M 968.4093503196023 105.68 C 968.4093503196023 100.886167936 972.2951926445477 97 977.088623046875 97 C 981.8820534492023 97 985.7678957741477 100.886167936 985.7678957741477 105.68 C 985.7678957741477 110.473832064 981.8820534492023 114.36 977.088623046875 114.36 C 972.2951926445477 114.36 968.4093503196023 110.473832064 968.4093503196023 105.68 Z" stroke-miterlimit="10"/></g><g transform="translate(-30,-38) scale(1,1)"><path fill="none" stroke="#000000" d="M 977.088623046875 114.36 L 977.088623046875 131.64" stroke-miterlimit="10"/></g><g transform="translate(-30,-38) scale(1,1)"><path fill="none" stroke="#000000" d="M 967.8988048650568 120.84 L 986.2784412286932 120.84" stroke-miterlimit="10"/></g><g transform="translate(-30,-38) scale(1,1)"><path fill="none" stroke="#000000" d="M 977.088623046875 131.64 L 964.3249866832386 149" stroke-miterlimit="10"/></g><g transform="translate(-30,-38) scale(1,1)"><path fill="none" stroke="#000000" d="M 977.088623046875 131.64 L 989.8522594105114 149" stroke-miterlimit="10"/></g><g transform="translate(-30,-38) scale(1,1)"><g><path fill="none" stroke="none"/><text fill="#000000" stroke="none" font-family="Arial" font-size="13px" font-style="normal" font-weight="bold" text-decoration="none" x="963.364990234375" y="169.5">BDD</text></g></g><g transform="translate(-30,-38) scale(1,1)"><path fill="none" stroke="#000000" d="M 301 216 L 301 184 M 301 184 A 8 8 0 0 1 309 176 L 944 176 M 944 176 A 8 8 0 0 0 952 168 L 952 175" stroke-miterlimit="10"/></g><g transform="translate(-30,-38) scale(1,1)"><path fill="none" stroke="#000000" d="M 284 104 L 284 80 L 952 80 L 952 96" stroke-miterlimit="10"/></g><g transform="translate(-30,-38) scale(1,1)"><path fill="none" stroke="#000000" d="M 552 312 L 640 296 L 724 243" stroke-miterlimit="10" stroke-dasharray="3"/></g><g transform="translate(-30,-38) scale(1,1)"><path fill="none" stroke="#000000" d="M 717.6513988589504 251.98305424406777 L 724 243 L 713.1588825103682 244.8628396538621" stroke-miterlimit="10"/></g><g transform="translate(-30,-38) scale(1,1)"><g><path fill="none" stroke="none"/><text fill="#000000" stroke="none" font-family="Arial" font-size="13px" font-style="normal" font-weight="normal" text-decoration="none" x="623.5" y="255.5">«extend»</text></g></g><g transform="translate(-30,-38) scale(1,1)"><path fill="none" stroke="#000000" d="M 683 391 L 524 347" stroke-miterlimit="10" stroke-dasharray="3"/></g><g transform="translate(-30,-38) scale(1,1)"><path fill="none" stroke="#000000" d="M 534.917265236653 345.65340438417104 L 524 347 L 532.6718591723181 353.7674853893807" stroke-miterlimit="10"/></g><g transform="translate(-30,-38) scale(1,1)"><g><path fill="none" stroke="none"/><text fill="#000000" stroke="none" font-family="Arial" font-size="13px" font-style="normal" font-weight="normal" text-decoration="none" x="567.5" y="403.5">«extend»</text></g></g><g transform="translate(-30,-38) scale(1,1)"><path fill="none" stroke="#000000" d="M 663 329 L 552 329" stroke-miterlimit="10" stroke-dasharray="3"/></g><g transform="translate(-30,-38) scale(1,1)"><path fill="none" stroke="#000000" d="M 562.1626748576241 324.790482243984 L 552 329 L 562.1626748576241 333.209517756016" stroke-miterlimit="10"/></g><g transform="translate(-30,-38) scale(1,1)"><g><path fill="none" stroke="none"/><text fill="#000000" stroke="none" font-family="Arial" font-size="13px" font-style="normal" font-weight="normal" text-decoration="none" x="576.5" y="346.5">«extend»</text></g></g></g></svg>